<?xml version="1.0" standalone="no"?>
<!DOCTYPE svg PUBLIC "-//W3C//DTD SVG 20010904//EN"
 "http://www.w3.org/TR/2001/REC-SVG-20010904/DTD/svg10.dtd">
<svg version="1.0" xmlns="http://www.w3.org/2000/svg"
 width="500.000000pt" height="500.000000pt" viewBox="0 0 500.000000 500.000000"
 preserveAspectRatio="xMidYMid meet">
<metadata>
Created by potrace 1.14, written by Peter Selinger 2001-2017
</metadata>
<g transform="translate(0.000000,500.000000) scale(0.100000,-0.100000)"
fill="#000000" stroke="none">
<path d="M2055 4493 c-27 -30 -57 -63 -66 -72 -8 -9 -23 -34 -33 -56 -10 -22
-24 -52 -31 -67 -11 -23 -11 -29 1 -39 8 -6 14 -8 14 -3 0 5 11 14 25 21 19 8
24 8 19 0 -3 -7 0 -5 8 4 7 9 18 14 25 12 6 -2 14 0 17 6 4 6 13 8 21 4 8 -3
15 0 15 6 0 6 7 8 17 4 12 -5 14 -3 8 8 -7 11 -6 12 7 2 8 -7 27 -14 42 -15
14 -1 26 -6 26 -11 0 -4 5 -5 10 -2 6 3 10 1 10 -6 0 -7 3 -9 6 -6 4 3 18 -6
33 -21 34 -37 80 -68 111 -76 24 -7 24 -6 4 6 -12 7 -19 19 -17 26 3 6 1 12
-4 12 -5 0 -15 16 -23 35 -7 19 -16 32 -20 30 -4 -2 -7 2 -7 10 0 10 4 12 12
5 7 -6 20 -8 29 -4 18 7 22 24 6 24 -5 0 -10 -6 -10 -12 0 -8 -3 -9 -8 -3 -7
10 -20 12 -94 16 -21 1 -38 6 -38 11 0 5 5 6 10 3 6 -3 10 -1 10 5 0 6 5 8 10
5 6 -3 10 0 10 7 0 10 2 10 9 0 10 -16 9 -16 66 8 25 11 45 17 45 15 0 -3 9 4
20 15 11 11 27 20 36 20 8 0 13 4 9 10 -3 5 7 16 22 24 15 8 25 15 21 16 -5 0
1 9 12 20 22 22 27 46 8 34 -7 -4 -21 -9 -33 -11 -37 -5 -50 -8 -63 -17 -7 -4
-16 -6 -19 -2 -3 3 -12 -2 -20 -10 -8 -8 -19 -12 -24 -9 -5 4 -9 1 -9 -4 0 -6
-7 -11 -15 -11 -8 0 -15 -5 -15 -12 0 -6 -3 -9 -6 -5 -7 6 -20 -3 -64 -45 -15
-15 -31 -24 -35 -20 -4 4 -5 0 -3 -8 2 -9 -4 -14 -14 -14 -10 1 -18 -2 -18 -6
0 -5 -13 -11 -30 -15 -16 -4 -30 -10 -30 -14 0 -3 -11 -8 -25 -9 -31 -2 -31 1
-1 31 14 14 22 28 19 31 -4 3 0 6 7 6 7 0 10 3 7 7 -4 3 -1 14 7 22 16 17 26
55 30 109 2 17 3 32 2 31 -1 0 -23 -25 -51 -56z"/>
<path d="M1805 4433 c-11 -21 -26 -46 -34 -55 -8 -9 -16 -23 -17 -30 -1 -7 -9
-30 -18 -50 -9 -21 -13 -38 -10 -38 4 0 2 -6 -3 -12 -6 -7 -9 -26 -8 -41 1
-15 -2 -30 -7 -33 -4 -3 -6 -10 -3 -15 4 -5 3 -15 -2 -21 -4 -7 -8 -26 -9 -43
-2 -25 -1 -27 7 -12 6 10 8 25 5 33 -3 8 -2 12 4 9 11 -7 51 14 63 33 4 6 14
12 22 12 8 0 30 11 49 24 29 19 42 22 70 16 19 -4 37 -5 40 -2 3 2 12 -1 21
-8 8 -7 24 -10 34 -7 11 3 22 0 25 -7 3 -7 5 -7 5 2 1 9 6 10 20 2 30 -16 37
7 10 31 -12 11 -32 22 -43 24 -54 12 -75 13 -79 2 -3 -9 -8 -8 -20 1 -19 16
-22 15 -99 -50 -12 -10 -28 -18 -37 -18 -12 0 -13 2 -4 8 7 5 14 20 15 34 1
15 5 25 9 22 7 -4 22 62 23 96 0 8 5 18 11 22 7 5 6 8 -1 8 -6 0 -10 15 -9 34
3 60 -8 71 -30 29z"/>
<path d="M2390 4320 c0 -5 -12 -8 -27 -7 -14 1 -28 -4 -30 -10 -3 -7 1 -13 7
-13 7 0 21 -11 32 -25 15 -20 26 -24 49 -20 16 3 29 2 29 -2 0 -5 14 -14 30
-21 17 -8 27 -18 24 -24 -4 -7 -2 -8 5 -4 6 4 9 12 6 17 -4 5 2 10 12 10 35 3
74 9 123 21 8 1 18 8 22 13 4 6 11 10 15 11 18 2 43 17 43 25 0 8 -80 26 -89
20 -2 -2 -8 3 -12 11 -5 8 -9 8 -9 2 0 -7 -16 -11 -40 -10 -22 1 -40 -2 -40
-8 0 -5 -3 -6 -6 -3 -4 3 -15 2 -25 -4 -14 -7 -19 -6 -19 3 0 9 -2 10 -8 2
-12 -20 -92 -22 -92 -3 0 5 4 7 10 4 6 -3 7 1 4 9 -7 18 -14 21 -14 6z"/>
<path d="M1535 4279 c-4 -13 -8 -26 -10 -29 -1 -3 -5 -14 -9 -25 -4 -11 -12
-28 -17 -37 -6 -13 -5 -18 3 -18 9 0 9 -3 2 -8 -6 -4 -10 -20 -9 -37 2 -16 -3
-33 -9 -37 -6 -5 -7 -8 -1 -8 6 0 10 -16 9 -35 -1 -19 1 -35 5 -35 3 0 7 -10
7 -22 3 -40 10 -78 17 -84 3 -4 1 -16 -5 -28 -6 -11 -11 -23 -10 -26 1 -3 -1
-20 -4 -37 -4 -21 -10 -30 -18 -26 -6 3 -8 3 -4 -2 4 -4 3 -16 -3 -26 -7 -13
-6 -25 1 -37 9 -14 10 -13 4 7 -4 16 -3 21 5 17 7 -5 8 -1 4 10 -5 13 -3 15 7
9 9 -5 11 -4 6 3 -4 7 -2 12 4 12 6 0 8 5 5 11 -4 5 1 19 11 30 9 10 13 19 8
19 -5 0 -1 5 9 11 9 5 17 16 17 23 0 8 7 16 15 20 9 3 12 12 8 22 -4 11 -3 15
5 10 6 -4 18 5 26 21 24 43 81 103 99 103 8 0 17 5 19 11 2 5 10 11 18 12 8 2
21 6 28 10 7 5 12 3 12 -5 0 -8 3 -9 8 -3 4 6 23 10 42 10 19 0 42 3 50 7 28
12 55 21 62 20 3 -1 8 5 11 12 4 9 -5 13 -26 13 -18 1 -48 2 -67 2 -51 3 -70
-3 -98 -30 -14 -13 -22 -17 -18 -9 4 9 2 8 -7 -2 -8 -10 -16 -15 -19 -13 -3 3
-11 -1 -17 -9 -7 -8 -19 -12 -27 -9 -8 3 -14 -1 -14 -10 0 -8 -7 -20 -15 -27
-8 -7 -12 -16 -9 -21 3 -5 -2 -9 -11 -9 -9 0 -13 -4 -10 -10 3 -5 1 -10 -4
-10 -6 0 -11 -4 -11 -9 0 -5 -13 -23 -30 -41 -16 -18 -30 -39 -30 -47 0 -8 -5
-11 -10 -8 -6 4 -7 13 -1 23 4 9 6 23 4 30 -3 6 0 12 7 12 6 0 9 4 5 9 -3 5 0
13 6 16 5 4 8 13 5 20 -3 8 -1 15 4 17 5 2 10 18 12 36 1 19 6 36 11 39 5 3 3
10 -4 15 -11 7 -11 11 -1 15 6 2 9 9 6 15 -3 5 -7 29 -8 52 -2 24 -7 49 -12
57 -4 8 -9 19 -10 26 -1 6 -6 19 -12 28 -8 15 -10 15 -17 -6z"/>
<path d="M2165 4214 c-11 -8 -28 -13 -38 -10 -9 2 -15 0 -11 -5 3 -5 -2 -9
-10 -9 -9 0 -16 -4 -16 -9 0 -4 -15 -24 -32 -44 -55 -61 -59 -67 -53 -77 3 -6
0 -10 -7 -10 -16 -1 -87 -60 -71 -60 6 0 16 7 24 16 20 25 79 53 117 56 6 1
12 5 12 10 0 5 16 18 35 29 19 12 35 27 35 35 0 8 4 14 10 14 5 0 12 11 16 25
3 14 10 23 14 20 5 -3 6 4 3 15 -3 11 -6 20 -7 20 0 0 -10 -7 -21 -16z"/>
<path d="M2350 4129 c0 -6 -4 -8 -10 -4 -5 3 -31 -5 -58 -19 -27 -14 -53 -22
-57 -18 -5 4 -5 1 -1 -6 5 -9 12 -9 27 -2 11 6 19 7 19 2 0 -11 34 -24 70 -27
14 -1 33 -3 43 -3 10 -1 16 -6 13 -10 -2 -4 7 -9 22 -10 14 -1 28 -5 31 -10
10 -12 121 -22 121 -10 0 4 5 8 11 8 5 0 7 -5 3 -12 -4 -7 -3 -8 5 -4 13 8 6
26 -11 26 -15 0 -49 41 -42 51 3 5 -2 6 -11 2 -13 -5 -14 -7 -3 -14 9 -6 9 -9
1 -9 -6 0 -19 10 -28 23 -8 12 -19 22 -23 22 -4 0 -6 4 -4 8 1 5 -2 6 -8 2 -5
-3 -16 -3 -22 2 -7 4 -17 8 -23 9 -5 1 -22 4 -37 7 -16 3 -28 1 -28 -4z"/>
<path d="M1333 4027 c-1 -40 2 -76 5 -82 4 -5 7 -17 9 -25 1 -8 11 -22 22 -31
11 -9 17 -20 13 -24 -4 -3 1 -11 11 -16 9 -6 17 -17 17 -24 0 -8 5 -15 11 -15
5 0 8 -4 5 -8 -3 -5 1 -9 8 -9 8 0 13 10 12 24 0 12 -5 23 -9 23 -4 0 -3 8 2
18 7 13 6 23 -1 30 -7 7 -9 12 -6 12 4 0 2 15 -3 33 -6 17 -12 41 -14 51 -3
11 -8 22 -13 25 -11 7 -37 54 -35 62 1 3 -6 10 -16 16 -16 10 -18 5 -18 -60z"/>
<path d="M2074 4040 c-9 -9 -41 -17 -74 -19 -13 -1 -13 -2 0 -11 12 -8 11 -10
-6 -10 -12 0 -25 -7 -28 -16 -3 -8 -10 -12 -16 -9 -5 3 -10 -1 -10 -10 0 -9
-4 -14 -9 -11 -5 3 -11 0 -14 -7 -3 -8 5 -13 24 -13 16 -1 29 2 29 6 0 5 8 7
18 5 9 -1 23 3 31 9 8 6 15 10 15 8 1 -2 15 2 31 8 17 6 31 11 33 10 1 0 10 6
18 15 9 8 19 13 24 10 4 -3 11 2 14 10 3 8 11 14 17 13 6 -2 13 2 16 8 5 13
-75 13 -96 0 -10 -6 -12 -5 -7 2 9 15 4 16 -10 2z"/>
<path d="M1760 4020 c8 -5 18 -6 22 -4 4 3 8 0 8 -7 0 -7 3 -10 6 -6 4 3 12 0
20 -7 15 -15 14 -77 -1 -88 -6 -5 -6 -11 2 -16 12 -7 3 -35 -11 -33 -3 1 -6
-1 -6 -4 0 -3 0 -7 0 -10 0 -3 14 1 30 10 17 9 29 12 28 8 -3 -8 5 -13 23 -13
6 0 3 7 -6 16 -13 13 -14 19 -4 25 7 4 13 20 15 35 2 16 8 30 14 32 5 2 10 11
10 20 0 15 -2 15 -10 2 -7 -11 -10 -11 -10 -2 0 7 -4 10 -10 7 -9 -5 -14 7
-11 27 0 4 -8 5 -19 3 -11 -2 -20 -1 -20 3 0 4 -19 9 -42 9 -29 2 -38 -1 -28
-7z"/>
<path d="M2390 4001 c0 -5 5 -13 10 -16 6 -3 10 -2 10 4 0 5 -4 13 -10 16 -5
3 -10 2 -10 -4z"/>
<path d="M2803 3972 c-13 -2 -23 -7 -23 -12 0 -10 19 -8 38 3 6 5 12 4 12 -1
0 -5 16 -9 35 -10 19 -1 45 -6 56 -13 12 -6 19 -7 15 -1 -3 6 4 5 19 -1 14 -7
25 -15 25 -19 0 -5 9 -8 20 -8 11 0 19 -4 18 -9 -2 -5 1 -9 6 -9 5 0 13 -6 17
-14 7 -10 9 -10 9 0 0 6 5 12 11 12 5 0 7 -4 4 -10 -3 -5 4 -10 15 -10 16 0
20 4 16 16 -3 9 -6 17 -6 20 0 2 -7 0 -17 -3 -11 -5 -14 -3 -8 6 6 10 3 11
-15 1 -12 -7 -20 -8 -16 -2 3 5 -4 18 -16 28 -12 11 -18 13 -14 7 4 -7 3 -13
-3 -13 -5 0 -15 8 -20 18 -6 9 -11 13 -11 7 0 -5 -4 -4 -9 4 -10 15 -111 24
-111 9 0 -7 -5 -7 -12 -1 -7 5 -23 7 -35 5z"/>
<path d="M2761 3954 c0 -11 3 -14 6 -6 3 7 2 16 -1 19 -3 4 -6 -2 -5 -13z"/>
<path d="M3256 3955 c-10 -8 -23 -12 -29 -8 -6 3 -7 1 -3 -5 8 -13 56 4 56 20
0 10 -1 10 -24 -7z"/>
<path d="M3383 3960 c2 -8 10 -15 18 -15 8 0 22 -8 31 -18 16 -18 17 -18 15 1
0 12 -4 19 -8 16 -4 -2 -10 0 -14 6 -4 6 -11 7 -17 4 -6 -4 -15 0 -20 7 -8 12
-9 11 -5 -1z"/>
<path d="M3645 3930 c-3 -6 1 -7 9 -4 18 7 21 14 7 14 -6 0 -13 -4 -16 -10z"/>
<path d="M1253 3923 c4 -6 2 -13 -5 -15 -8 -3 -6 -6 4 -10 17 -7 19 15 3 29
-4 4 -5 3 -2 -4z"/>
<path d="M2450 3915 c0 -9 6 -12 15 -9 8 4 12 10 9 15 -8 14 -24 10 -24 -6z"/>
<path d="M3185 3904 c-30 -25 -30 -25 -3 -13 15 6 29 18 32 25 7 18 6 18 -29
-12z"/>
<path d="M3460 3923 c0 -11 62 -45 68 -38 8 8 -10 25 -19 19 -6 -3 -19 2 -30
12 -10 9 -19 12 -19 7z"/>
<path d="M1790 3911 c0 -7 -5 -9 -12 -5 -7 5 -8 3 -3 -5 5 -9 10 -10 18 -2 6
6 8 14 4 18 -4 3 -7 1 -7 -6z"/>
<path d="M3603 3905 c-14 -10 -24 -12 -28 -5 -9 15 -22 12 -29 -6 -3 -8 -2
-12 4 -9 6 3 10 0 10 -7 0 -10 2 -10 9 0 4 8 10 13 12 11 9 -5 49 13 49 22 0
12 -2 12 -27 -6z"/>
<path d="M2075 3880 c-4 -6 -11 -8 -16 -4 -5 3 -16 0 -24 -6 -8 -7 -15 -10
-15 -6 0 7 -48 -22 -68 -41 -13 -13 -29 -16 -89 -15 -19 0 -33 -5 -33 -11 0
-8 -3 -8 -9 1 -7 11 -11 11 -23 -2 -9 -8 -18 -12 -22 -9 -3 3 -8 -1 -12 -10
-3 -9 -12 -13 -20 -10 -8 3 -14 0 -14 -6 0 -6 -5 -11 -11 -11 -5 0 -8 4 -5 8
3 5 -1 9 -9 9 -8 0 -13 -2 -11 -5 3 -2 -12 -21 -33 -43 -36 -35 -41 -49 -19
-49 4 0 8 4 8 10 0 5 8 19 17 30 13 14 19 16 25 7 6 -9 8 -9 8 1 0 10 5 10 20
2 11 -6 20 -7 20 -2 0 4 18 8 40 7 22 -1 40 3 40 7 0 4 9 8 20 8 11 0 20 5 20
12 0 6 3 8 6 5 4 -4 19 2 33 12 40 27 56 31 84 16 16 -8 29 -9 38 -3 11 8 10
9 -3 4 -12 -3 -15 -1 -11 9 3 8 9 12 14 9 5 -3 9 0 9 7 0 8 5 7 17 -2 14 -12
16 -12 8 0 -6 11 -2 13 18 9 15 -3 25 -2 23 1 -3 4 7 11 20 18 13 6 22 7 19 2
-3 -4 6 -2 21 6 15 7 33 11 42 8 10 -4 13 -2 8 5 -4 7 -16 12 -27 12 -11 0
-29 5 -40 10 -13 8 -19 7 -19 0 0 -7 -6 -8 -19 0 -14 7 -22 7 -26 0z"/>
<path d="M1249 3867 c0 -7 -2 -27 -4 -44 -2 -18 1 -33 6 -33 5 0 8 -3 7 -7 -3
-15 14 -63 23 -63 5 0 9 -7 9 -15 0 -8 4 -15 9 -15 5 0 11 -14 15 -30 8 -43 8
-44 23 -58 7 -7 13 -19 13 -27 0 -7 5 -15 10 -17 6 -2 11 -22 13 -45 1 -24 7
-43 12 -43 7 0 7 -3 0 -8 -5 -4 -11 -11 -11 -17 -1 -5 -4 -23 -8 -38 -5 -22
-4 -27 6 -21 8 4 7 0 -3 -12 -8 -10 -14 -29 -13 -41 0 -13 -2 -23 -6 -23 -5 0
-6 -10 -2 -22 4 -16 2 -19 -9 -13 -12 7 -12 6 -1 -7 10 -13 10 -19 -3 -32 -9
-9 -17 -16 -18 -16 -1 0 -3 17 -3 38 -2 68 -9 107 -21 120 -7 7 -10 19 -7 26
3 8 1 17 -5 21 -6 3 -11 14 -11 24 0 10 -7 24 -15 31 -8 7 -12 16 -9 21 3 5 0
9 -6 9 -6 0 -8 5 -5 10 3 6 -2 10 -11 10 -10 0 -14 3 -11 7 4 3 -7 19 -24 36
-22 21 -34 26 -42 18 -13 -13 -16 -61 -4 -61 5 0 4 -6 -2 -13 -6 -8 -8 -17 -4
-21 8 -8 13 -31 15 -63 0 -13 5 -23 11 -23 6 0 8 -3 4 -6 -3 -4 1 -21 10 -38
10 -17 17 -35 18 -39 0 -5 11 -17 25 -28 14 -12 19 -17 11 -13 -9 5 -12 3 -7
-4 4 -7 12 -12 17 -12 9 0 29 -20 69 -67 8 -9 7 -13 -1 -13 -7 0 -8 -4 -2 -12
12 -17 10 -68 -5 -93 -12 -21 -16 -11 -13 28 2 10 -5 17 -14 17 -9 0 -13 5
-10 10 3 6 2 10 -2 10 -9 0 -42 51 -40 60 1 3 -10 17 -23 32 -37 39 -46 52
-65 87 -9 18 -19 30 -22 27 -9 -9 -10 -78 -1 -103 5 -16 4 -23 -5 -23 -8 0 -9
-2 -1 -8 6 -4 10 -15 8 -24 -1 -10 2 -20 7 -24 5 -3 7 -10 4 -15 -4 -5 -2 -9
4 -9 6 0 8 -7 5 -15 -4 -8 -1 -15 6 -15 6 0 9 -4 6 -9 -7 -11 69 -93 77 -84 4
3 7 -1 7 -11 0 -9 5 -14 10 -11 6 3 10 1 10 -6 0 -7 3 -9 7 -6 3 4 12 -1 19
-11 9 -13 9 -19 1 -24 -9 -6 -9 -8 0 -8 9 0 10 -7 3 -26 -7 -16 -7 -23 0 -19
7 4 7 -3 0 -19 -7 -18 -6 -26 1 -26 7 0 6 -6 -2 -17 -12 -15 -12 -16 1 -8 13
8 13 7 1 -8 -7 -9 -9 -17 -4 -17 6 0 9 -12 9 -27 -1 -16 2 -38 5 -49 4 -12 3
-26 -4 -33 -8 -8 -6 -11 7 -11 13 0 16 -3 8 -12 -5 -8 -6 -22 -1 -33 11 -29
11 -37 -3 -29 -10 6 -10 4 -2 -7 5 -8 9 -24 8 -36 0 -13 3 -23 8 -23 5 0 6 -4
3 -10 -3 -5 -2 -10 3 -10 6 0 13 -12 16 -26 4 -14 16 -35 27 -47 12 -13 15
-23 9 -25 -6 -2 -3 -10 7 -18 17 -12 16 -13 -4 -7 -16 4 -23 13 -23 31 0 14
-3 22 -7 19 -9 -10 -35 31 -28 43 3 6 2 10 -4 10 -5 0 -13 9 -16 21 -5 15 -10
18 -18 10 -18 -18 -45 -13 -52 9 -4 11 -10 18 -15 15 -5 -3 -24 1 -41 10 -17
9 -28 11 -24 5 5 -7 0 -7 -14 1 -11 8 -26 26 -32 41 -11 27 -29 38 -29 18 0
-5 6 -10 13 -10 8 0 7 -4 -3 -10 -9 -6 -11 -10 -3 -10 7 0 10 -6 7 -13 -3 -8
-18 -11 -44 -9 -35 4 -40 7 -40 31 -1 14 -7 43 -14 63 -7 20 -11 36 -7 35 7
-2 11 7 11 30 0 9 -3 13 -7 10 -3 -4 -12 1 -19 11 -7 9 -17 18 -23 18 -6 1
-15 2 -19 3 -14 2 -11 39 4 51 15 13 9 34 -7 24 -5 -3 -7 -9 -4 -13 2 -5 -4
-16 -14 -25 -19 -17 -19 -17 -17 8 2 14 -1 23 -6 20 -5 -3 -7 5 -4 19 2 14 -1
24 -8 24 -13 0 -16 -45 -3 -64 4 -6 3 -14 -3 -18 -5 -3 -10 -2 -10 3 0 9 -6
11 -55 15 -16 1 -36 6 -42 10 -7 5 -13 4 -13 -2 0 -7 -9 -7 -22 -3 -13 5 -34
8 -48 8 -14 -1 -28 4 -32 9 -5 6 -8 4 -8 -4 0 -21 59 -73 73 -65 7 4 9 4 5 -1
-9 -10 21 -34 44 -35 9 0 18 -4 20 -9 3 -9 55 -21 108 -25 17 -1 37 -18 62
-52 44 -58 47 -74 13 -74 -17 0 -25 5 -25 18 0 24 -19 42 -37 35 -11 -4 -9 -9
7 -20 25 -18 26 -29 0 -36 -11 -3 -20 -1 -20 4 0 5 -5 9 -10 9 -6 0 -23 11
-38 25 -15 14 -31 25 -37 25 -5 0 8 -15 29 -34 21 -18 35 -36 29 -39 -5 -3
-35 -7 -66 -9 -31 -2 -57 -5 -57 -6 0 -2 16 -20 36 -40 62 -65 144 -172 144
-190 0 -5 21 -20 46 -33 26 -12 49 -30 52 -41 2 -10 8 -18 13 -18 5 0 9 -9 9
-21 0 -11 4 -18 9 -14 5 3 13 1 16 -5 5 -8 11 -7 21 1 8 7 14 7 14 1 0 -8 47
-14 118 -14 12 0 22 -4 22 -9 0 -5 3 -8 8 -7 15 4 52 -14 53 -25 1 -7 3 -30 4
-52 2 -22 4 -40 5 -40 1 0 4 -11 6 -25 3 -14 9 -26 14 -28 6 -2 10 -10 10 -18
0 -8 5 -14 11 -14 5 0 7 -5 4 -10 -4 -6 -3 -10 2 -9 16 4 43 -13 43 -28 0 -17
-29 -10 -77 19 -27 16 -32 17 -27 4 3 -9 10 -13 15 -10 5 3 9 1 9 -4 0 -5 14
-15 30 -22 17 -7 30 -17 30 -22 0 -5 4 -7 9 -4 14 9 20 -16 9 -36 -6 -12 -5
-18 3 -18 7 0 6 -9 -5 -25 -9 -13 -16 -28 -16 -32 0 -4 5 -1 10 7 9 13 10 13
11 0 1 -8 1 -18 0 -22 0 -5 7 -8 16 -8 9 0 14 -3 10 -6 -3 -3 5 -18 19 -33 13
-14 31 -33 39 -42 8 -9 15 -21 15 -27 0 -7 5 -12 10 -12 6 0 10 -4 10 -10 0
-5 16 -25 35 -45 20 -19 33 -35 30 -35 -4 0 11 -18 33 -39 22 -22 37 -42 34
-45 -3 -3 0 -6 7 -6 7 0 9 -4 6 -10 -3 -5 -1 -10 5 -10 6 0 16 -12 23 -27 6
-16 17 -34 24 -41 16 -17 8 -33 -13 -25 -8 3 -13 8 -10 11 3 3 -4 13 -16 23
-11 11 -18 19 -13 19 4 0 -4 12 -19 26 -14 15 -26 33 -26 40 0 8 -8 14 -17 14
-9 0 -13 3 -10 6 4 4 -6 18 -21 30 -15 13 -24 24 -20 24 4 0 -13 20 -39 45
-25 25 -42 45 -37 45 4 0 -1 7 -12 15 -10 8 -15 15 -10 15 6 0 1 7 -10 15 -10
8 -15 15 -11 15 8 0 -38 50 -46 50 -8 0 -3 -35 5 -40 4 -3 9 -27 10 -53 2 -26
5 -47 8 -47 3 0 6 -9 7 -19 2 -21 -43 -36 -54 -18 -3 6 -1 7 5 3 7 -4 12 -2
12 3 0 6 -4 11 -8 11 -9 0 -47 62 -44 73 1 4 -2 7 -8 7 -12 0 -13 -8 -14 -132
-1 -53 2 -94 6 -92 7 5 12 -10 9 -28 0 -5 4 -8 10 -8 5 0 8 -4 5 -9 -8 -12
102 -123 114 -116 6 3 10 2 10 -3 0 -9 63 -44 76 -42 3 1 11 -5 17 -13 17 -21
114 -104 212 -183 11 -8 15 -13 9 -10 -13 7 -37 -18 -27 -27 3 -4 12 -2 19 4
7 6 21 8 31 5 10 -3 21 -5 24 -3 3 1 13 -5 22 -13 36 -33 47 -40 62 -40 8 0
15 -7 15 -16 0 -11 5 -14 16 -10 10 4 14 2 11 -6 -2 -7 -10 -12 -16 -10 -6 1
-11 -2 -11 -8 0 -5 -6 -10 -14 -10 -8 0 -17 -6 -19 -12 -4 -10 -6 -10 -6 0 -1
7 -5 11 -11 7 -5 -3 -18 3 -29 14 -14 14 -22 16 -31 7 -10 -8 -11 -8 -6 1 5 9
0 13 -13 13 -11 0 -23 5 -26 10 -5 7 -11 8 -19 1 -6 -5 -25 -12 -41 -15 -15
-3 -31 -10 -35 -16 -4 -7 -11 -12 -16 -12 -15 -1 -44 -24 -38 -31 4 -4 -1 -9
-10 -13 -9 -3 -16 -10 -16 -16 0 -12 98 -8 124 5 13 7 16 6 11 -3 -4 -7 5 -4
21 6 21 14 26 15 19 4 -7 -12 -6 -13 7 -3 8 7 18 10 21 6 4 -3 7 -1 7 5 0 7 7
12 15 12 8 0 15 -3 15 -8 0 -8 -57 -36 -63 -30 -1 2 -18 -12 -37 -29 -19 -18
-38 -33 -42 -33 -4 0 -10 -9 -13 -20 -4 -11 -10 -18 -14 -16 -4 3 -8 -4 -8
-15 -1 -12 -7 -27 -14 -36 -7 -8 -13 -23 -14 -33 -1 -15 2 -17 15 -10 10 5 20
6 24 3 3 -3 6 -1 6 6 0 7 5 9 10 6 6 -3 10 -1 10 4 0 6 7 11 16 11 9 0 12 5 8
12 -4 6 -3 9 2 5 5 -3 27 6 49 19 22 13 36 24 31 24 -5 0 3 10 17 23 15 12 27
28 27 35 0 7 4 12 10 12 5 0 7 6 4 14 -3 7 2 20 10 29 8 8 13 17 11 19 -3 3 2
5 10 5 8 0 15 -3 15 -7 0 -4 18 -7 40 -6 44 2 51 -10 20 -37 -11 -9 -20 -23
-20 -31 0 -8 -5 -16 -12 -18 -6 -2 -12 -28 -13 -59 -2 -67 29 -139 59 -139 17
0 18 -2 6 -10 -13 -8 -12 -10 3 -10 9 0 17 -5 17 -12 0 -6 3 -8 6 -5 4 4 -2
19 -12 34 -10 15 -17 31 -16 35 1 5 -4 8 -11 8 -8 0 -7 4 3 10 10 6 11 10 3
10 -13 0 -12 56 2 99 5 17 2 21 -13 21 -15 0 -19 5 -15 20 3 11 10 20 16 20 6
0 8 3 4 6 -10 11 31 47 44 39 8 -5 10 -4 5 3 -7 11 6 17 28 13 4 -1 14 3 22
10 7 6 18 8 24 4 5 -3 10 0 10 7 0 8 3 9 8 3 4 -5 26 -10 50 -10 23 0 41 -4
40 -10 -2 -5 -15 -9 -30 -9 -16 1 -28 -1 -28 -5 0 -4 -10 -7 -22 -8 -46 -1
-58 -3 -58 -12 0 -5 11 -8 25 -7 14 0 25 3 25 6 0 8 64 6 77 -3 6 -4 14 -3 18
3 4 6 12 7 18 3 15 -9 39 -12 103 -14 50 -1 51 -2 49 -30 -2 -18 6 -39 21 -56
13 -16 24 -24 24 -19 0 5 7 3 15 -4 8 -6 19 -9 24 -6 5 4 12 3 14 -1 6 -10 59
-9 75 1 7 4 12 2 12 -4 0 -7 6 -8 18 -2 9 5 27 8 40 7 12 -1 22 2 22 7 0 4 8
8 18 8 32 0 80 38 93 74 9 24 22 39 41 45 15 6 28 8 28 6 0 -2 18 2 41 10 23
8 45 12 50 9 5 -3 9 0 9 5 0 6 9 11 19 11 16 0 19 -5 15 -27 -3 -15 -10 -30
-15 -34 -6 -3 -10 -9 -10 -13 3 -20 0 -26 -9 -21 -5 3 -10 -3 -10 -15 0 -12
-4 -18 -10 -15 -5 3 -10 -2 -10 -11 0 -10 -3 -15 -6 -12 -3 3 -19 -7 -37 -23
-17 -16 -37 -29 -44 -29 -7 0 -13 -4 -13 -10 0 -5 -9 -10 -20 -10 -11 0 -20
-4 -20 -10 0 -5 -7 -7 -15 -4 -8 4 -15 2 -15 -3 0 -5 -6 -10 -12 -11 -13 -1
-47 -7 -78 -14 -8 -2 -21 -7 -27 -11 -7 -5 -17 -5 -23 -2 -5 3 -10 2 -10 -4 0
-5 -9 -8 -20 -6 -11 2 -18 0 -15 -4 2 -5 -7 -8 -22 -8 -15 0 -29 -6 -31 -12
-2 -6 -8 -8 -13 -5 -6 3 -21 -2 -36 -11 -14 -9 -22 -12 -19 -6 5 7 1 9 -8 5
-9 -3 -16 -11 -16 -16 0 -6 -6 -5 -15 2 -12 10 -16 9 -21 -4 -3 -9 -14 -16
-23 -16 -9 0 -23 -6 -30 -12 -11 -11 -12 -10 -6 2 7 12 6 13 -6 4 -8 -6 -24
-10 -36 -9 -13 1 -23 -1 -23 -4 0 -8 -103 -7 -115 1 -6 3 -19 1 -30 -3 -18 -9
-18 -9 3 -5 12 2 22 0 22 -4 0 -5 8 -8 18 -8 9 0 29 -2 45 -5 15 -3 27 -1 27
4 0 5 5 9 11 9 5 0 7 -4 4 -10 -9 -14 8 -12 24 3 11 10 13 10 7 0 -4 -7 -2
-13 3 -13 6 0 11 4 11 8 0 4 16 7 35 7 19 -1 35 2 35 6 0 4 9 6 20 4 11 -2 20
1 20 7 0 6 3 9 6 6 3 -4 21 0 40 8 19 8 34 11 34 7 0 -5 4 -3 8 3 7 12 63 26
109 28 11 1 19 4 17 7 -2 4 5 9 16 12 11 3 20 1 20 -5 0 -5 6 -6 13 -1 6 4 21
8 32 9 11 0 31 4 43 8 13 4 34 10 45 11 43 7 53 11 92 35 46 28 126 105 118
114 -4 3 -2 6 3 6 10 0 30 47 40 92 3 13 6 28 7 33 5 22 18 34 32 28 9 -3 15
1 15 10 0 9 5 19 12 23 7 5 8 3 3 -5 -7 -13 -6 -12 61 22 17 9 34 14 38 10 3
-3 6 -1 6 6 0 8 7 10 23 5 31 -10 127 -12 133 -2 3 4 10 8 15 8 6 0 7 -6 3
-12 -6 -10 -5 -10 8 -1 8 7 18 10 21 6 4 -3 7 0 7 7 0 7 3 10 7 7 3 -4 12 -2
20 5 7 6 16 8 19 5 4 -3 20 7 38 23 17 17 34 30 38 30 4 0 10 9 13 20 4 11 10
18 15 15 10 -6 22 23 14 36 -3 5 0 9 5 9 6 0 11 7 11 16 0 9 5 12 13 8 6 -4 9
-4 5 1 -4 4 8 29 26 54 53 73 79 146 78 225 0 16 4 34 10 40 5 6 18 25 28 43
25 42 115 101 162 106 57 6 141 62 201 133 l18 21 -50 -13 c-51 -13 -98 -10
-115 7 -6 6 -6 9 0 9 13 0 69 50 58 51 -5 1 -12 1 -16 0 -15 -2 -8 13 20 42
33 36 4 22 -48 -23 -28 -25 -31 -30 -15 -30 17 0 17 -2 5 -10 -17 -11 -103
-14 -113 -3 -12 11 15 33 40 33 37 0 173 99 173 126 0 3 -8 3 -17 -1 -31 -13
-103 -22 -109 -14 -2 4 5 17 17 28 12 11 18 24 15 29 -3 6 21 39 55 74 33 34
68 78 76 97 8 19 32 61 54 94 21 32 39 59 39 60 0 1 -15 2 -32 2 -18 0 -33 5
-33 12 0 6 -3 15 -7 19 -4 4 -2 14 5 22 10 13 8 14 -15 8 -24 -5 -28 -3 -28
14 0 11 12 26 29 34 24 13 41 34 41 52 0 3 -9 0 -19 -6 -43 -22 -42 -8 2 33
46 43 86 97 71 97 -4 0 -16 -7 -26 -17 -19 -17 -24 -8 -8 17 6 11 5 17 -6 20
-11 4 -6 14 21 40 35 35 72 90 59 90 -4 0 -13 -8 -20 -17 -7 -10 -16 -14 -21
-10 -4 5 9 39 30 77 40 73 49 110 18 73 -11 -13 -22 -23 -25 -23 -12 0 9 34
41 66 39 39 45 75 11 66 -18 -4 -20 -2 -14 14 19 46 20 58 3 51 -19 -7 -22 4
-7 19 13 13 22 54 11 54 -4 0 -13 -6 -20 -12 -11 -11 -12 -7 -7 22 12 61 11
85 -1 85 -7 0 -18 9 -26 19 -13 18 -14 18 -21 -8 -4 -17 -2 -34 5 -42 9 -11 9
-21 2 -37 -6 -13 -7 -30 -3 -38 4 -8 11 -25 15 -39 7 -22 6 -23 -9 -11 -26 22
-28 8 -4 -37 13 -22 19 -44 15 -49 -5 -4 -12 -1 -17 7 -6 10 -12 12 -20 4 -7
-7 -6 -24 4 -57 15 -51 4 -75 -15 -33 -7 14 -15 23 -20 21 -10 -7 1 -45 23
-77 21 -30 22 -39 7 -92 -7 -26 -14 -35 -19 -27 -4 7 -5 22 -2 34 5 19 -19 47
-40 47 -12 0 -10 -41 5 -91 13 -43 7 -120 -6 -89 -4 8 -8 26 -10 39 -2 14 -8
26 -14 28 -6 2 -8 -23 -5 -68 3 -50 1 -69 -7 -65 -6 4 -11 19 -11 34 0 34 -12
53 -27 44 -16 -10 -21 -58 -5 -54 6 1 12 -8 13 -20 0 -13 2 -31 4 -40 4 -22
-13 -24 -21 -3 -11 29 -24 15 -24 -26 0 -22 4 -38 9 -35 11 7 21 -17 21 -51 0
-39 -15 -16 -19 30 -2 20 -21 4 -21 -18 0 -14 -5 -25 -11 -25 -7 0 -9 -12 -5
-34 6 -30 4 -34 -19 -40 -14 -4 -31 -3 -38 1 -7 4 -20 6 -29 5 -23 -4 -23 16
-1 40 14 16 15 21 3 28 -11 7 -12 14 -2 35 7 15 10 30 7 35 -3 5 0 18 6 28 15
23 6 52 -16 52 -9 0 -15 -9 -15 -24 0 -32 -10 -57 -20 -51 -4 3 -3 -13 2 -36
16 -62 -3 -114 -51 -139 -21 -10 -41 -17 -43 -14 -3 2 -20 -16 -39 -40 -42
-55 -61 -66 -49 -28 5 15 16 48 24 74 13 40 13 48 0 59 -8 6 -14 23 -14 38 0
23 6 29 43 39 67 18 110 49 104 74 -4 14 3 30 23 49 71 71 186 262 204 339 12
47 13 90 5 96 -5 3 -7 9 -4 13 2 5 7 30 10 57 3 27 9 75 14 107 8 58 6 244 -3
282 -2 11 -5 35 -5 54 -1 42 -8 38 -16 -9 -7 -43 -33 -73 -57 -67 -11 3 -20
-2 -24 -15 -3 -10 -17 -23 -30 -28 -13 -5 -24 -14 -24 -20 0 -5 -17 -17 -37
-25 -21 -9 -47 -25 -59 -36 -19 -18 -55 -21 -69 -7 -3 3 -7 25 -9 49 -4 44 11
92 42 139 20 31 16 75 -11 120 -11 19 -24 37 -27 40 -3 3 -13 17 -23 32 -9 15
-23 25 -30 23 -6 -2 -25 13 -42 34 -23 30 -34 37 -47 30 -22 -12 -31 -11 -23
1 3 6 -3 10 -14 10 -12 0 -21 4 -21 9 0 5 -9 11 -20 14 -11 3 -18 1 -15 -3 3
-5 -4 -8 -15 -7 -11 1 -20 5 -20 10 0 4 -4 5 -10 2 -5 -3 -10 -1 -10 5 0 6 -4
8 -10 5 -5 -3 -10 -1 -10 5 0 6 -4 8 -10 5 -5 -3 -10 -1 -10 6 0 8 -3 9 -13 0
-8 -6 -16 -9 -19 -6 -2 3 -5 -2 -5 -10 0 -8 7 -15 14 -15 8 0 11 -4 8 -10 -7
-12 -45 10 -45 26 0 6 -10 19 -22 28 -13 9 -18 15 -12 12 6 -3 10 4 9 16 -3
36 -23 32 -23 -4 1 -18 -2 -47 -6 -65 -4 -22 -2 -34 8 -40 12 -7 12 -12 1 -33
-11 -19 -14 -21 -15 -7 0 20 -11 22 -28 5 -10 -10 -15 -5 -24 20 -7 18 -16 32
-20 32 -4 0 -8 5 -8 11 0 6 -7 18 -16 26 -11 12 -12 18 -4 23 8 5 9 10 2 14
-6 4 -8 14 -5 23 5 12 3 14 -8 9 -8 -4 -6 -1 3 7 16 13 15 14 -11 13 -16 -1
-27 -4 -24 -8 2 -5 -1 -8 -6 -8 -19 0 -26 5 -23 14 2 5 -4 3 -13 -4 -14 -12
-12 -15 15 -28 17 -8 28 -17 25 -20 -3 -3 2 -13 11 -23 9 -10 14 -25 10 -34
-3 -9 -2 -13 4 -10 6 3 11 0 12 -7 0 -7 2 -17 3 -23 2 -5 3 -18 4 -28 0 -10 6
-15 11 -12 6 3 10 -1 10 -11 0 -16 47 -64 63 -64 5 0 5 -4 2 -10 -3 -5 1 -10
10 -10 10 0 13 -5 9 -12 -4 -6 -3 -8 3 -5 5 4 23 -4 40 -16 22 -16 29 -29 26
-47 -2 -14 -4 -31 -5 -39 -1 -10 -5 -9 -15 5 -7 10 -13 12 -13 6 0 -7 9 -21
20 -32 11 -11 15 -20 8 -20 -6 0 -8 -3 -5 -6 4 -4 12 -2 20 4 8 7 18 7 27 2 8
-6 11 -10 6 -10 -6 0 -1 -7 10 -16 16 -13 16 -15 2 -10 -10 3 -20 0 -24 -6 -4
-7 -3 -8 4 -4 7 4 12 3 12 -3 0 -5 9 -13 20 -16 11 -3 20 -13 20 -21 0 -8 5
-14 10 -14 6 0 10 -6 10 -14 0 -8 5 -16 10 -18 6 -2 12 -13 13 -25 0 -12 4
-20 8 -17 12 7 18 -23 7 -34 -6 -6 -6 -12 3 -17 8 -6 10 -4 4 6 -6 10 -5 11 4
3 6 -6 13 -20 16 -32 2 -12 7 -27 11 -34 5 -7 3 -8 -7 -3 -11 7 -12 6 -2 -7 7
-8 10 -18 6 -21 -3 -4 0 -7 8 -7 12 0 12 -2 0 -9 -16 -10 -61 6 -61 22 0 6 -8
19 -17 30 -10 11 -12 17 -5 13 11 -7 12 -4 3 12 -6 12 -7 23 -2 26 14 9 1 55
-15 49 -8 -3 -14 -9 -14 -15 0 -5 5 -6 12 -2 7 4 8 3 4 -5 -6 -8 -12 -9 -20
-2 -13 11 -26 5 -26 -11 0 -5 4 -7 9 -4 5 3 11 -9 15 -26 3 -17 14 -41 24 -52
9 -10 11 -16 5 -12 -7 4 -13 2 -13 -3 0 -6 6 -11 13 -12 6 0 3 -4 -8 -9 -17
-7 -17 -9 -2 -9 9 -1 17 -7 17 -15 0 -8 4 -16 9 -18 6 -1 11 -22 12 -45 2 -24
6 -43 10 -43 3 0 7 -33 8 -72 2 -108 4 -128 14 -128 5 0 7 -9 4 -20 -3 -11 0
-20 6 -20 7 0 5 -5 -3 -10 -8 -5 -10 -10 -5 -10 6 0 10 -29 9 -67 0 -49 -4
-68 -15 -71 -11 -3 -11 -2 1 7 13 9 12 11 -5 11 -17 0 -17 2 -5 10 8 5 11 10
5 10 -5 0 -10 11 -10 25 0 14 5 25 10 25 6 0 3 5 -5 10 -8 5 -15 15 -15 22 -1
7 -7 12 -14 10 -7 -1 -10 2 -6 8 5 8 11 8 21 -1 7 -6 11 -16 7 -22 -3 -6 -1
-7 6 -3 9 6 9 11 1 21 -7 8 -9 18 -6 24 3 5 -3 7 -14 4 -16 -4 -20 0 -20 22 0
19 -4 26 -14 22 -8 -3 -20 2 -28 11 -11 13 -11 15 2 8 8 -4 7 -1 -3 7 -10 9
-18 18 -18 21 3 23 -1 35 -19 54 -11 12 -20 26 -20 33 0 6 -7 8 -16 5 -8 -3
-12 -2 -9 4 3 6 -1 10 -9 10 -8 0 -18 5 -22 12 -5 7 -2 9 7 4 8 -4 5 0 -5 8
-13 10 -15 16 -7 16 10 0 11 3 2 14 -16 19 0 28 17 10 7 -8 10 -14 6 -14 -4 0
3 -8 14 -19 12 -10 19 -21 15 -25 -6 -6 12 -10 31 -7 5 1 6 -5 2 -14 -3 -9 -2
-14 3 -11 12 8 43 -29 34 -39 -5 -4 0 -5 10 -2 9 4 17 2 17 -3 0 -6 -5 -10
-11 -10 -8 0 -8 -4 0 -14 9 -11 10 -20 1 -38 -10 -20 -9 -21 3 -6 12 15 14 15
25 -3 7 -11 10 -23 8 -28 -3 -4 0 -8 7 -8 7 0 13 8 13 18 0 10 -4 15 -8 13
-10 -7 -33 53 -32 84 1 12 -4 22 -10 22 -6 0 -4 5 4 10 8 5 11 10 6 10 -6 0
-1 7 10 15 18 15 18 15 0 8 -15 -5 -17 -3 -12 8 4 8 1 6 -7 -4 -14 -17 -15
-17 -22 0 -5 10 -7 22 -6 26 1 5 -8 22 -19 38 -12 16 -16 29 -10 29 7 0 8 6 1
19 -6 10 -8 21 -5 24 10 9 11 68 2 73 -5 3 -6 10 -3 15 4 5 1 9 -5 9 -6 0 -9
4 -5 9 3 5 1 12 -5 16 -6 4 -7 12 -3 18 9 15 12 47 3 47 -3 0 -7 15 -8 32 -2
18 -7 37 -12 42 -6 6 -10 18 -10 29 0 10 -4 15 -10 12 -6 -3 -10 4 -10 17 0
13 -9 34 -20 48 -11 14 -20 30 -20 35 0 6 -9 17 -20 25 -11 8 -20 20 -20 27 0
7 -4 13 -10 13 -5 0 -10 7 -10 15 0 8 -5 15 -11 15 -5 0 -7 5 -4 10 3 6 1 10
-5 10 -6 0 -18 6 -25 13 -8 6 -27 23 -44 37 -17 14 -43 36 -57 49 -18 17 -28
20 -33 12 -5 -7 -15 -9 -26 -5 -11 5 -16 4 -12 -2 4 -6 -6 -9 -23 -6 -16 2
-29 7 -28 11 0 3 -3 22 -7 41 -7 28 -9 31 -15 15 -4 -11 -2 -27 4 -35 9 -13 9
-13 -5 -2 -11 8 -15 21 -11 35 5 20 4 21 -13 7 -10 -8 -16 -10 -12 -3 9 14
-19 24 -51 18 -12 -2 -22 0 -22 6 0 5 -5 9 -11 9 -5 0 -7 -6 -3 -12 4 -7 -3
-4 -16 7 -13 11 -20 14 -16 8 4 -7 2 -13 -4 -13 -6 0 -8 -5 -4 -12 4 -7 3 -8
-5 -4 -6 4 -18 3 -25 -3 -7 -6 -25 -10 -39 -9 -32 3 -26 11 10 16 55 7 60 21
8 21 -27 1 -65 2 -83 4 -18 2 -35 0 -38 -4 -2 -4 10 -6 27 -5 29 2 54 -12 27
-16 -7 0 -17 -2 -23 -2 -5 -1 -16 -5 -22 -9 -17 -11 -33 0 -27 17 7 19 -143
17 -155 -3 -5 -7 -11 -12 -15 -12 -15 2 -16 0 -6 -19 9 -16 8 -20 -5 -20 -9 0
-15 7 -13 16 2 10 -3 19 -11 22 -8 2 -11 0 -7 -6 4 -6 -2 -8 -16 -4 -12 3 -19
1 -15 -4 3 -6 -4 -11 -16 -11 -17 -2 -19 0 -7 7 23 15 5 12 -26 -5 -17 -9 -32
-11 -39 -5 -6 5 -17 5 -25 0 -8 -5 -18 -6 -22 -3 -5 2 -16 -1 -25 -9 -9 -7
-19 -12 -22 -11 -3 0 -5 -4 -3 -9 2 -6 -4 -8 -12 -5 -16 7 -60 -36 -49 -48 5
-4 3 -5 -4 -1 -6 3 -14 2 -18 -4 -3 -5 -1 -10 4 -10 6 0 11 -4 11 -10 0 -5 -7
-7 -15 -4 -8 4 -15 1 -15 -6 0 -6 -4 -9 -9 -5 -5 3 -12 -4 -16 -15 -4 -11 -11
-17 -17 -14 -6 4 -9 -6 -6 -27 2 -27 -1 -34 -14 -33 -11 1 -15 -5 -13 -17 2
-11 -1 -19 -7 -19 -6 0 -8 -11 -6 -25 4 -18 2 -23 -6 -16 -8 7 -16 1 -25 -20
-7 -16 -19 -29 -27 -29 -8 0 -13 -4 -11 -8 1 -5 -15 -25 -35 -44 -20 -20 -33
-40 -30 -44 4 -4 2 -4 -5 -1 -6 4 -21 -5 -32 -19 -12 -15 -21 -24 -21 -20 0 4
-11 -5 -25 -20 -14 -15 -25 -23 -25 -18 0 5 -5 1 -11 -9 -6 -9 -15 -14 -21
-11 -7 4 -8 2 -4 -4 4 -8 0 -12 -10 -12 -17 0 -16 -1 1 -13 13 -10 15 -16 6
-21 -6 -4 -19 -2 -28 6 -12 9 -15 10 -9 0 4 -7 1 -14 -8 -18 -14 -5 -18 -62
-5 -74 8 -8 49 -98 49 -110 0 -5 7 -10 16 -10 11 0 14 -5 10 -16 -4 -10 0 -15
12 -13 28 2 46 -1 39 -7 -3 -3 3 -15 13 -27 23 -24 97 -28 111 -6 5 8 9 10 9
6 0 -11 80 34 80 45 0 5 5 6 10 3 6 -3 10 1 10 9 0 9 3 15 8 14 4 -1 21 5 37
12 44 19 81 28 150 35 16 2 30 4 30 5 0 1 24 4 54 6 30 2 60 9 67 14 6 6 16 9
20 8 12 -4 73 22 105 43 14 10 29 16 33 12 3 -3 6 -2 6 4 0 14 49 35 62 27 7
-5 8 -2 3 6 -6 10 -4 12 8 7 10 -3 17 -2 17 2 0 5 7 12 16 15 14 5 15 4 4 -9
-7 -8 -9 -15 -5 -15 4 0 -4 -9 -17 -20 -15 -12 -25 -30 -25 -45 -1 -14 -11
-36 -26 -49 -19 -17 -24 -32 -24 -63 0 -31 -6 -47 -26 -67 -15 -15 -25 -32
-22 -37 4 -5 1 -9 -5 -9 -6 0 -9 -4 -6 -9 3 -5 -1 -14 -9 -21 -8 -7 -15 -9
-15 -4 0 5 -5 1 -11 -9 -6 -9 -14 -15 -20 -12 -5 4 -9 1 -9 -4 0 -6 -3 -10 -7
-10 -22 4 -36 -4 -69 -36 -19 -19 -40 -36 -45 -36 -32 -5 -79 -28 -79 -39 0
-6 -4 -9 -9 -5 -5 3 -12 1 -16 -5 -4 -6 -11 -8 -16 -5 -5 4 -9 1 -9 -4 0 -6
-9 -11 -20 -11 -11 0 -20 -4 -20 -9 0 -5 -11 -8 -25 -7 -15 2 -22 -1 -18 -7 4
-6 0 -8 -10 -4 -11 4 -17 1 -17 -9 0 -8 -4 -13 -9 -9 -5 3 -21 -6 -35 -20 -14
-14 -26 -23 -26 -19 0 3 -9 -4 -20 -17 -10 -13 -19 -21 -20 -17 0 4 -23 -6
-51 -22 -28 -17 -47 -25 -43 -18 4 7 -4 3 -18 -10 -13 -12 -28 -19 -31 -15 -4
3 -7 2 -7 -4 0 -6 -6 -13 -13 -16 -10 -4 -13 3 -12 21 0 17 8 28 18 30 10 2
15 8 11 13 -3 5 -10 6 -16 3 -7 -4 -8 -2 -4 4 4 7 2 12 -4 12 -6 0 -8 4 -5 10
3 5 8 19 10 31 2 11 23 38 47 60 24 22 34 37 24 33 -12 -5 -17 -4 -13 3 3 5 0
10 -8 10 -8 0 -15 -9 -15 -19 0 -10 -4 -18 -10 -18 -5 0 -9 -5 -7 -11 1 -6 -3
-13 -9 -16 -6 -2 -10 10 -9 31 0 19 -3 32 -7 30 -4 -3 -8 0 -8 5 0 6 4 11 8
11 5 0 9 7 9 15 0 8 -4 15 -8 15 -8 0 -6 20 6 55 6 16 5 17 -4 5 -9 -12 -11
-11 -11 8 0 14 -5 22 -12 20 -14 -5 -19 -48 -5 -48 5 0 7 -6 4 -12 -2 -7 0
-22 5 -32 9 -16 7 -18 -11 -13 -12 3 -19 1 -16 -3 3 -5 -1 -11 -7 -14 -7 -4
-3 -4 10 -2 19 4 21 2 11 -10 -9 -11 -8 -14 3 -14 11 0 15 -10 14 -37 -1 -21
-5 -44 -9 -50 -5 -8 -4 -13 3 -13 6 0 8 -11 4 -27 -3 -16 -5 -34 -5 -40 0 -7
1 -25 2 -39 1 -15 -2 -29 -7 -33 -5 -3 -16 -19 -24 -35 -8 -16 -22 -31 -30
-33 -13 -4 -13 -3 0 6 8 6 11 11 5 11 -18 0 -31 -15 -31 -35 0 -11 -5 -19 -12
-18 -7 2 -12 -4 -12 -13 0 -8 -4 -13 -9 -10 -5 3 -12 -1 -15 -9 -4 -13 -10
-14 -26 -5 -16 9 -18 8 -14 -5 4 -8 2 -15 -3 -15 -14 0 -14 51 -1 68 11 13 11
14 -1 7 -10 -6 -12 -4 -7 4 5 7 15 10 23 6 13 -4 14 -3 3 10 -15 18 0 20 20 3
12 -11 12 -10 2 3 -6 9 -8 20 -4 24 4 5 0 5 -8 1 -8 -4 -7 -1 3 7 12 10 15 17
7 22 -8 5 -8 11 1 21 6 8 8 14 4 14 -4 0 -2 6 4 14 6 8 11 18 10 22 -4 22 2
35 12 28 8 -5 8 -1 0 14 -15 28 -14 35 3 29 10 -4 13 -1 9 9 -3 7 -9 14 -15
14 -5 0 -2 8 8 18 16 16 16 17 1 20 -9 2 -17 8 -17 13 0 5 -7 9 -16 9 -8 0
-13 4 -9 10 8 14 -22 80 -47 101 -11 11 -18 19 -14 19 4 0 1 7 -6 15 -31 35
-38 45 -38 60 0 9 7 18 15 21 8 4 13 9 10 14 -2 4 4 16 15 28 11 12 16 23 11
26 -4 3 -7 19 -6 36 1 17 -3 34 -9 37 -6 3 -8 3 -4 -2 4 -4 0 -14 -8 -22 -8
-8 -11 -20 -7 -26 3 -7 3 -9 -2 -5 -4 4 -15 -1 -24 -11 -9 -10 -38 -42 -64
-71 -26 -29 -55 -66 -63 -83 -12 -22 -18 -26 -24 -16 -5 7 -6 17 -4 21 3 4 0
8 -6 8 -7 0 -8 5 -3 13 4 6 8 19 9 27 1 8 2 25 3 36 2 29 30 39 50 18 9 -9 12
-14 6 -11 -5 2 -16 -1 -23 -9 -8 -9 -9 -14 -2 -14 6 0 8 -4 5 -10 -3 -5 -2
-10 4 -10 16 0 22 18 9 23 -8 3 -6 6 5 6 9 1 17 8 17 16 0 8 5 15 10 15 6 0
10 6 10 14 0 8 6 17 13 19 9 4 9 6 -1 6 -7 1 -10 6 -7 11 3 6 1 10 -5 10 -6 0
-9 4 -5 9 3 5 1 12 -4 15 -5 4 -8 17 -6 31 1 14 -3 25 -9 25 -7 0 -6 4 2 9 7
4 12 12 11 17 -4 22 2 34 19 34 10 0 23 5 29 11 6 6 17 11 24 12 17 3 65 49
61 60 -1 4 2 7 8 7 16 0 51 40 44 51 -3 6 -18 -3 -35 -20 -16 -17 -35 -28 -43
-25 -16 6 -15 29 1 45 9 9 8 16 -3 26 -12 12 -12 18 -2 31 10 12 5 11 -19 -3
-18 -11 -33 -23 -33 -27 0 -4 -9 -12 -19 -17 -14 -8 -20 -7 -25 5 -3 8 -2 12
3 9 5 -3 12 -2 15 3 3 5 -2 9 -10 9 -9 0 -21 -11 -27 -24 -5 -12 -14 -23 -19
-23 -5 0 -6 -4 -3 -10 3 -5 -1 -10 -10 -10 -9 0 -14 -4 -10 -9 3 -5 2 -12 -3
-15 -4 -2 -8 6 -8 20 0 13 3 24 8 24 4 0 4 7 1 17 -4 10 -2 14 5 9 7 -4 9 2 6
19 -2 14 0 25 6 25 5 0 10 7 10 15 0 8 9 24 20 35 24 24 26 42 5 34 -8 -4 -15
-2 -15 4 0 6 6 12 13 15 9 3 9 8 -3 21 -16 21 -22 46 -10 46 5 0 7 8 5 18 -1
9 3 23 9 31 8 11 8 13 -1 7 -7 -4 -13 -2 -13 3 0 6 4 11 9 11 14 0 20 37 7 51
-8 9 -8 10 1 5 9 -5 11 -2 6 10 -5 13 -2 16 9 12 11 -5 14 0 12 18 -1 13 2 24
8 24 6 0 8 7 4 15 -3 8 0 15 6 15 6 0 8 3 5 7 -4 3 -2 12 4 19 6 8 8 21 3 31
-4 10 -8 22 -8 27 -1 5 -8 11 -16 13 -12 4 -12 3 -1 -5 7 -5 9 -12 4 -15 -6
-4 -9 -19 -8 -34 1 -15 -4 -42 -11 -60 -7 -17 -10 -33 -8 -36 3 -2 -2 -9 -10
-16 -11 -10 -14 -5 -18 24 -2 20 0 35 7 35 5 0 4 4 -4 9 -7 5 -10 14 -7 20 4
6 2 11 -3 11 -6 0 -11 7 -11 15 0 9 -8 30 -17 48 -9 18 -17 36 -18 40 0 4 -7
12 -15 17 -8 5 -11 10 -7 10 4 0 -1 10 -12 22 -11 11 -19 24 -16 27 2 4 -5 8
-16 8 -10 1 -19 -4 -20 -10z m1611 -119 c0 -4 -6 -8 -14 -8 -8 0 -17 4 -20 8
-2 4 4 8 15 8 10 0 19 -4 19 -8z m503 -28 c-3 -11 -7 -20 -9 -20 -2 0 -4 9 -4
20 0 11 4 20 9 20 5 0 7 -9 4 -20z m-967 -18 c-9 -9 -37 8 -31 18 5 8 11 7 21
-1 8 -6 12 -14 10 -17z m991 13 c0 -8 -4 -12 -9 -9 -5 3 -6 10 -3 15 9 13 12
11 12 -6z m-1023 -13 c6 -9 -27 -41 -61 -59 -14 -7 -25 -8 -28 -2 -10 15 4 29
22 22 11 -4 14 -3 9 5 -4 7 -1 12 7 12 8 0 17 7 21 15 6 16 22 20 30 7z m550
1 c-5 -5 -11 -11 -14 -14 -3 -4 -11 -1 -18 7 -11 12 -8 14 14 14 15 0 23 -3
18 -7z m-722 -36 c-7 -8 -9 -16 -6 -20 3 -3 -4 -11 -16 -17 -18 -10 -21 -10
-14 2 5 7 9 15 9 18 0 9 30 38 34 34 2 -2 -1 -10 -7 -17z m78 13 c0 -5 -2 -10
-4 -10 -3 0 -8 5 -11 10 -3 6 -1 10 4 10 6 0 11 -4 11 -10z m1065 0 c3 -5 12
-7 20 -3 8 3 15 0 15 -5 0 -6 -15 -10 -32 -10 -18 1 -27 3 -19 6 11 4 11 6 0
13 -9 6 -10 9 -2 9 6 0 14 -4 18 -10z m-1198 -16 c-3 -3 -12 -4 -19 -1 -8 3
-5 6 6 6 11 1 17 -2 13 -5z m965 -12 c7 -7 -19 -8 -64 -3 -5 1 -8 5 -8 10 0
11 60 5 72 -7z m-832 -22 c0 -5 -9 -8 -19 -7 -15 1 -17 4 -9 14 11 13 28 9 28
-7z m1080 12 c0 -5 -7 -9 -15 -9 -8 0 -12 4 -9 9 3 4 9 8 15 8 5 0 9 -4 9 -8z
m114 -5 c11 11 36 12 36 2 0 -5 3 -8 8 -8 21 4 42 -2 42 -11 0 -7 -6 -7 -19 0
-14 7 -22 7 -26 -1 -5 -6 -12 -4 -22 8 -8 10 -12 13 -9 6 11 -21 -9 -22 -34
-2 -20 17 -21 18 -4 10 12 -6 24 -7 28 -4z m-94 -27 c0 -5 -2 -10 -4 -10 -3 0
-8 5 -11 10 -3 6 -1 10 4 10 6 0 11 -4 11 -10z m-1157 -31 c-10 -17 -26 -35
-37 -41 -13 -7 -16 -7 -12 1 4 6 3 11 -2 11 -5 0 -12 -9 -15 -21 -3 -12 -10
-18 -16 -14 -17 10 25 49 45 41 12 -4 15 -2 10 9 -3 9 0 15 9 15 8 0 15 7 15
15 0 8 5 15 11 15 5 0 2 -14 -8 -31z m238 1 c5 0 9 -5 9 -11 0 -5 -5 -7 -10
-4 -6 4 -18 1 -27 -7 -9 -7 -19 -12 -22 -11 -12 5 -41 -8 -41 -18 0 -6 -4 -7
-10 -4 -5 3 -10 2 -10 -2 0 -5 -16 -10 -35 -11 -27 -2 -33 1 -29 13 3 8 9 15
13 16 27 3 43 9 56 22 8 8 26 14 40 13 14 -2 25 1 25 6 0 6 7 7 16 4 9 -3 20
-6 25 -6z m1139 -13 c0 6 9 9 20 6 34 -9 31 -20 -5 -18 -19 2 -35 0 -35 -4 0
-7 -35 -7 -50 -1 -3 1 -9 2 -15 0 -5 -1 -4 4 3 12 11 11 14 10 22 -2 8 -12 10
-12 10 -1 0 7 6 11 15 7 8 -3 15 0 15 7 0 8 4 6 10 -3 5 -8 10 -10 10 -3z
m-152 -13 c6 4 16 -4 23 -16 7 -13 18 -27 25 -31 8 -4 14 -15 14 -22 0 -10 11
-15 35 -15 19 0 35 -5 35 -11 0 -5 5 -7 10 -4 6 3 10 2 10 -2 0 -5 17 -7 38
-5 58 6 92 -26 92 -86 0 -26 5 -65 11 -86 10 -36 9 -41 -15 -65 -24 -24 -26
-24 -27 -6 -1 28 -9 68 -14 74 -3 2 -5 -13 -5 -35 0 -60 -17 -107 -50 -139
-16 -16 -31 -27 -31 -24 -1 2 -2 15 -3 29 -4 46 -18 105 -28 118 -6 6 -7 12
-4 12 4 0 1 10 -6 23 -7 12 -11 26 -10 31 2 5 -5 18 -15 29 -13 15 -14 18 -3
13 9 -5 8 -2 -2 7 -10 8 -14 18 -10 22 4 5 1 5 -5 1 -8 -4 -17 2 -25 18 -6 14
-16 26 -21 26 -6 0 -7 3 -4 7 4 3 -1 15 -10 26 -10 11 -12 17 -4 12 9 -5 7 1
-4 19 -9 14 -19 43 -21 63 -2 24 0 33 5 24 5 -7 14 -11 19 -7z m246 -33 c3 -5
-8 -8 -24 -7 -17 1 -30 -1 -30 -5 0 -4 -8 -6 -17 -4 -29 6 -29 7 -3 15 35 11
68 12 74 1z m-1578 -25 c-28 -17 -51 -39 -69 -66 l-18 -25 5 25 c2 14 5 28 5
33 1 4 6 7 11 7 6 0 23 11 37 24 15 14 31 22 37 19 6 -4 2 -11 -8 -17z m-146
-167 c-11 -8 -12 -12 -2 -16 6 -2 12 -9 12 -15 0 -7 -4 -7 -12 0 -14 11 -43
-10 -31 -22 4 -3 -1 -6 -11 -6 -13 0 -10 8 15 40 18 22 35 37 38 34 3 -3 -1
-10 -9 -15z m76 6 c-8 -9 -22 -22 -30 -30 -12 -13 -15 -12 -21 2 -3 10 -3 14
1 11 3 -4 15 2 27 13 24 22 46 26 23 4z m1230 -169 c-11 -17 -12 -27 -5 -32 8
-4 7 -9 -2 -15 -8 -5 -9 -9 -3 -9 6 0 11 -6 11 -12 0 -7 3 -25 6 -40 3 -16 1
-28 -4 -28 -5 0 -9 3 -10 8 0 4 -3 16 -5 27 -3 11 -6 29 -7 40 -2 11 -6 25
-10 32 -5 7 1 21 13 33 27 27 36 25 16 -4z m-1551 -33 c-2 -10 -4 -23 -4 -29
-1 -6 -12 -11 -26 -11 -13 0 -22 3 -19 8 3 5 1 9 -5 9 -6 0 -8 7 -5 15 6 14 8
13 19 -2 11 -15 13 -15 24 5 14 27 20 28 16 5z m1570 -132 c-3 -5 -1 -12 3
-15 5 -3 7 -28 5 -56 -2 -33 1 -49 7 -45 9 5 12 -1 9 -21 0 -4 5 -11 13 -15 9
-6 10 -9 1 -9 -7 0 -10 -7 -7 -15 4 -8 9 -13 13 -10 4 2 8 -2 8 -10 0 -8 -4
-15 -8 -15 -4 0 6 -14 22 -31 16 -17 27 -34 25 -38 -2 -3 4 -23 14 -44 10 -20
14 -35 9 -31 -5 3 -9 -2 -9 -11 0 -20 45 -66 56 -57 5 4 2 -2 -6 -13 -8 -11
-11 -17 -6 -13 11 9 48 -31 40 -45 -3 -7 3 -1 14 12 19 23 42 22 42 -2 0 -7
-4 -6 -10 3 -6 10 -8 6 -6 -15 1 -17 5 -35 8 -41 4 -5 3 -16 -3 -24 -7 -12 -9
-12 -9 3 0 10 -4 16 -9 13 -5 -4 -12 0 -15 6 -3 7 -4 2 -2 -12 4 -30 -19 -58
-28 -34 -3 9 -6 25 -6 35 0 11 -4 17 -10 14 -5 -3 -10 2 -10 11 0 28 -23 88
-40 104 -9 8 -15 27 -14 43 2 15 -1 25 -5 22 -5 -2 -14 2 -21 10 -10 12 -10
15 1 15 9 1 8 6 -5 15 -17 13 -18 17 -6 28 7 6 10 7 7 1 -3 -6 0 -11 8 -11 11
0 12 4 3 14 -6 8 -19 11 -32 7 -19 -6 -19 -5 3 13 19 15 21 22 11 28 -8 5 -11
4 -6 -3 3 -6 1 -14 -5 -18 -12 -7 -31 15 -23 28 3 5 -2 11 -10 14 -9 3 -13 10
-10 15 3 5 1 9 -5 9 -5 0 -9 9 -8 20 1 11 6 20 12 20 6 0 6 3 -1 8 -12 8 -25
64 -13 57 4 -3 10 -1 14 5 3 5 0 10 -7 10 -8 0 -14 10 -15 22 -2 21 13 58 23
58 3 0 3 -4 -1 -9z m-1815 -225 c0 -14 -13 -35 -19 -31 -4 2 -8 -1 -9 -8 -7
-55 -8 -77 -1 -77 4 0 6 -8 4 -17 -1 -10 5 -31 13 -48 9 -16 15 -33 14 -37 -1
-5 6 -8 15 -8 9 0 13 -3 10 -6 -4 -4 3 -15 15 -25 11 -11 18 -20 15 -20 -4 -1
-16 -3 -27 -4 -11 -1 -23 -4 -27 -5 -5 -1 -12 -1 -18 0 -5 1 -7 -1 -3 -5 9
-10 -24 -45 -35 -38 -6 4 -7 -5 -3 -23 7 -27 6 -28 -7 -9 -9 11 -13 23 -10 27
2 5 -3 11 -11 14 -9 3 -16 14 -16 24 0 10 -6 21 -12 23 -10 4 -10 6 0 6 7 1
17 -10 22 -24 11 -28 15 -30 26 -13 4 6 3 8 -3 5 -5 -3 -16 9 -23 28 -7 19
-16 32 -20 30 -3 -2 -12 1 -20 7 -12 8 -12 9 2 4 10 -3 20 -1 23 4 4 6 1 10
-6 10 -7 0 -9 3 -6 6 3 4 2 15 -3 25 -7 12 -6 20 1 25 8 4 7 9 -2 15 -9 6 -10
12 -4 17 6 4 10 12 10 17 0 15 37 86 42 81 3 -2 13 4 24 15 17 17 49 26 49 15z
m1836 -113 c1 -21 7 -39 13 -41 6 -2 11 -15 11 -28 0 -13 5 -24 11 -24 5 0 7
-4 4 -10 -3 -5 0 -10 8 -10 17 0 37 -36 39 -72 1 -16 5 -28 9 -28 4 0 9 -9 12
-21 5 -20 5 -20 -15 -2 -12 10 -18 12 -13 4 5 -10 4 -12 -3 -7 -7 4 -12 14
-12 22 0 8 -6 13 -12 11 -7 -1 -12 3 -11 9 1 7 -10 15 -25 19 -15 4 -29 7 -32
8 -6 2 -36 26 -55 45 -8 6 -20 12 -29 12 -25 0 -30 39 -7 61 11 10 24 19 30
19 9 0 25 30 23 43 -1 4 3 7 9 7 5 0 7 5 4 10 -3 6 4 10 17 10 20 0 23 -5 24
-37z m267 -150 c1 -17 3 -30 5 -28 6 6 62 -58 62 -70 0 -7 -11 -15 -25 -17
-17 -4 -25 -1 -25 8 0 8 -5 14 -11 14 -6 0 -9 6 -6 13 2 6 -3 19 -11 27 -14
13 -15 12 -9 -4 6 -16 5 -17 -8 -6 -9 8 -13 20 -9 33 4 14 3 17 -7 12 -7 -5
-5 2 4 16 19 26 22 43 7 34 -11 -7 -14 8 -3 19 12 12 33 -19 36 -51z m464 -55
c-3 -8 -6 -5 -6 6 -1 11 2 17 5 13 3 -3 4 -12 1 -19z m-2987 -62 c-7 -7 -13
-7 -20 0 -6 6 -3 10 10 10 13 0 16 -4 10 -10z m335 -16 c-3 -5 1 -15 9 -23 8
-8 12 -17 9 -21 -4 -3 -1 -6 5 -6 6 0 9 -7 6 -15 -4 -8 -1 -15 5 -15 6 0 10
-11 9 -25 -3 -29 -18 -34 -18 -7 0 10 -3 22 -7 25 -3 4 -14 29 -24 56 -14 40
-14 49 -3 44 8 -3 12 -9 9 -13z m-275 0 c0 -5 -5 -10 -11 -10 -5 0 -7 5 -4 10
3 6 8 10 11 10 2 0 4 -4 4 -10z m2524 -43 c-1 -12 -3 -31 -3 -42 -1 -16 -3
-17 -10 -5 -6 8 -8 17 -5 21 2 4 0 10 -6 14 -14 9 -13 42 3 48 16 5 24 -8 21
-36z m-2469 23 c3 -5 1 -10 -4 -10 -6 0 -11 5 -11 10 0 6 2 10 4 10 3 0 8 -4
11 -10z m107 -54 c10 6 11 4 0 -7 -10 -11 -15 -10 -30 6 -15 17 -15 18 0 6 9
-7 23 -9 30 -5z m28 -26 c0 -5 -2 -10 -4 -10 -3 0 -8 5 -11 10 -3 6 -1 10 4
10 6 0 11 -4 11 -10z m214 -21 c-2 -4 0 -10 6 -14 6 -4 8 -10 5 -15 -3 -5 -1
-11 5 -15 6 -4 8 -11 4 -16 -3 -5 -10 -7 -15 -3 -5 3 -7 10 -4 15 4 5 1 9 -5
9 -7 0 -10 6 -7 14 3 7 1 18 -4 23 -6 6 -4 10 5 10 8 0 13 -4 10 -8z m2112
-42 c11 -6 11 -12 1 -27 -18 -30 -24 -24 -25 23 0 23 2 35 5 27 3 -8 12 -19
19 -23z m-458 4 c27 -23 28 -40 3 -38 -11 0 -17 6 -14 14 3 7 -2 16 -11 19 -9
3 -13 10 -10 15 7 12 8 12 32 -10z m-1581 -11 c1 -11 -4 -20 -13 -20 -19 0
-11 31 11 40 1 0 1 -9 2 -20z m1169 -29 c11 9 14 8 14 -2 0 -11 2 -11 10 1 5
8 10 10 10 4 0 -7 6 -12 13 -11 35 1 57 -4 57 -13 0 -7 -13 -9 -32 -5 -18 3
-46 7 -63 9 -16 2 -30 8 -31 15 -2 7 0 7 3 1 3 -8 9 -7 19 1z m501 -26 c4 -4
1 -5 -7 -1 -8 4 -6 0 4 -8 18 -15 18 -16 2 -16 -19 0 -48 24 -40 33 7 7 32 3
41 -8z m93 -7 c0 -4 4 -7 9 -5 5 1 10 -2 12 -8 1 -5 9 -16 18 -23 13 -10 14
-12 1 -10 -10 2 -16 -7 -18 -24 -3 -26 -22 -41 -22 -17 0 5 -4 7 -10 4 -6 -4
-10 6 -10 21 0 27 1 27 16 8 8 -10 13 -14 10 -7 -4 6 0 14 6 16 8 3 6 6 -4 6
-10 1 -20 0 -22 -1 -7 -5 -46 34 -41 41 5 10 55 9 55 -1z m-550 -33 c0 -15
-36 -9 -47 8 -3 6 -1 7 5 3 7 -4 12 -3 12 3 0 6 7 8 15 5 8 -4 15 -12 15 -19z
m-314 7 c-2 -4 19 -8 47 -9 29 0 63 -3 77 -6 14 -3 28 -6 33 -6 4 -1 7 -5 7
-11 0 -5 -17 -7 -37 -4 -21 3 -67 7 -103 8 -36 1 -64 6 -62 11 1 6 6 10 11 10
5 0 13 3 17 8 10 9 16 9 10 -1z m349 2 c13 -5 14 -8 3 -15 -19 -13 -28 -11
-28 6 0 17 2 18 25 9z m100 -14 c11 -5 14 -9 7 -9 -7 -1 -10 -7 -7 -13 4 -7 0
-5 -8 4 -8 10 -17 15 -20 11 -4 -3 -7 -1 -7 5 0 14 7 14 35 2z m249 -22 c-3
-4 4 -8 15 -8 14 0 19 -5 15 -15 -5 -11 -10 -12 -25 -2 -24 15 -31 34 -13 34
7 0 11 -4 8 -9z m-409 -18 c3 -6 -1 -7 -9 -4 -18 7 -21 14 -7 14 6 0 13 -4 16
-10z m644 -26 c-7 -8 -6 -14 3 -17 7 -3 4 -5 -8 -4 -11 1 -21 7 -21 14 0 6 4
10 9 7 13 -8 10 10 -4 25 -11 11 -9 11 9 0 15 -9 19 -17 12 -25z m-709 16 c0
-5 -8 -14 -17 -19 -10 -6 -14 -11 -9 -11 6 0 1 -6 -9 -14 -24 -17 -41 -10 -24
10 6 8 8 14 3 14 -13 0 30 29 44 30 6 0 12 -4 12 -10z m623 -20 c9 -11 13 -20
7 -20 -5 0 -14 9 -20 20 -6 11 -9 20 -8 20 2 0 11 -9 21 -20z m-527 -16 c8 3
14 1 14 -5 0 -5 6 -9 13 -8 16 3 97 -22 97 -30 0 -4 9 -7 19 -8 24 -2 114 -62
130 -87 8 -11 8 -15 2 -11 -6 3 -11 2 -11 -4 0 -6 -7 -8 -15 -5 -8 4 -13 10
-10 14 3 5 0 12 -6 16 -7 4 -9 3 -6 -3 4 -6 -7 -10 -28 -9 -19 0 -35 4 -35 8
0 4 -9 10 -20 13 -11 3 -20 13 -20 21 0 8 -5 14 -11 14 -5 0 -7 4 -4 10 3 6
-1 7 -9 4 -19 -7 -19 -7 -4 -39 6 -14 18 -25 25 -25 8 0 11 -4 8 -10 -3 -5 1
-10 9 -10 9 0 16 -4 16 -8 0 -4 8 -8 18 -9 35 -3 72 -10 78 -15 3 -4 21 0 40
8 21 9 34 10 34 4 0 -6 9 -20 19 -31 11 -12 21 -29 24 -39 4 -14 0 -17 -17
-15 -72 12 -116 13 -116 2 0 -8 -4 -7 -9 2 -5 8 -16 11 -25 8 -9 -4 -16 -3
-16 2 0 4 -6 8 -12 8 -7 0 -21 4 -31 8 -10 4 -17 4 -16 -1 4 -23 -2 -33 -17
-27 -10 4 -12 8 -5 13 10 6 -12 15 -87 36 -7 2 -10 8 -7 14 3 5 1 10 -5 10 -6
0 -8 5 -4 12 5 8 2 9 -11 4 -14 -5 -16 -4 -7 7 9 11 0 25 -44 65 -51 47 -54
53 -43 74 15 28 30 39 47 33 6 -2 12 0 12 6 0 6 7 3 16 -6 9 -9 23 -14 30 -11z
m264 14 c0 10 4 10 20 0 11 -7 20 -21 20 -32 0 -18 -1 -17 -19 3 -11 12 -23
22 -27 21 -5 -1 -10 4 -12 12 -2 9 0 8 7 -2 7 -10 11 -11 11 -2z m-608 -13 c5
-7 8 -6 8 0 0 7 26 10 72 8 57 -3 76 -8 91 -24 15 -16 22 -18 33 -8 8 6 17 9
21 6 3 -4 -2 -9 -11 -13 -9 -3 -13 -11 -9 -18 4 -6 -1 -5 -10 3 -10 8 -21 10
-25 6 -4 -4 -1 -10 6 -12 6 -3 12 -14 12 -24 0 -11 5 -17 10 -14 6 3 10 -1 10
-10 0 -9 5 -13 10 -10 6 3 10 0 10 -7 0 -7 13 -22 27 -32 23 -17 26 -17 20 -3
-3 9 -2 17 3 17 6 0 10 -7 10 -15 0 -21 -30 -34 -57 -24 -13 5 -23 5 -23 1 0
-6 -29 -11 -83 -13 -10 0 -29 -4 -42 -9 -15 -6 -27 -6 -30 0 -10 17 -13 99 -4
102 11 4 -18 48 -32 48 -24 0 -59 -143 -38 -156 16 -10 -9 -22 -37 -19 -13 1
-24 -1 -24 -6 0 -5 -7 -6 -15 -3 -8 4 -15 13 -15 21 0 8 -6 13 -12 10 -7 -2
-12 -13 -10 -25 2 -11 -2 -23 -8 -27 -5 -3 -10 0 -10 7 -1 8 -7 5 -16 -7 -8
-11 -16 -18 -18 -15 -1 3 -19 -6 -39 -20 -41 -28 -86 -103 -82 -137 1 -13 -2
-24 -7 -24 -27 -4 -34 -3 -44 6 -7 5 -10 13 -7 18 2 4 0 7 -6 7 -6 0 -8 7 -5
15 4 8 1 21 -5 29 -6 7 -8 16 -5 19 3 3 8 24 10 47 2 23 9 50 14 61 6 10 8 19
4 19 -4 0 1 9 11 20 10 11 21 17 26 15 4 -3 10 -1 14 5 4 6 9 9 13 7 4 -2 19
10 34 25 15 15 24 28 21 28 -3 0 12 15 33 34 30 27 42 32 57 25 9 -6 15 -14
13 -18 -3 -4 6 -6 19 -3 14 2 23 8 20 12 -3 5 0 10 5 12 10 3 16 21 19 51 1 4
4 6 9 6 19 -3 33 2 28 10 -8 12 27 8 36 -4z m816 -6 c-10 -7 -10 -9 0 -9 6 0
12 -5 12 -12 0 -9 -3 -9 -12 0 -18 18 -19 42 -1 35 12 -5 12 -7 1 -14z m102 1
c0 -5 -5 -10 -11 -10 -5 0 -7 5 -4 10 3 6 8 10 11 10 2 0 4 -4 4 -10z m-30
-30 c0 -9 6 -22 13 -29 10 -11 9 -12 -2 -6 -11 6 -13 3 -8 -14 5 -22 5 -22
-14 -5 -10 9 -19 26 -19 36 0 13 -4 17 -12 12 -10 -6 -10 -5 -1 7 17 21 43 20
43 -1z m45 -20 c3 -6 -1 -7 -9 -4 -18 7 -21 14 -7 14 6 0 13 -4 16 -10z m525
-5 c0 -2 -7 -8 -15 -15 -12 -10 -15 -10 -15 2 0 8 7 15 15 15 8 0 15 -1 15 -2z
m-60 -30 c-18 -19 -26 -22 -32 -13 -6 10 -8 10 -8 1 0 -7 -5 -13 -11 -13 -8 0
-8 4 1 14 6 8 17 13 24 10 7 -3 19 2 26 11 7 8 15 15 18 15 3 0 -5 -11 -18
-25z m-634 -31 c0 -26 -11 -23 -18 4 -3 10 0 19 6 19 7 0 12 -11 12 -23z m125
0 c2 2 4 -6 4 -20 0 -29 -19 -38 -35 -18 -9 10 -10 18 -1 27 6 8 7 18 3 23 -4
4 0 3 9 -4 9 -6 18 -10 20 -8z m-575 -16 l19 -23 -25 20 c-14 11 -27 21 -29
22 -2 2 0 3 6 3 5 0 18 -10 29 -22z m1104 -44 c0 -8 -19 -13 -24 -6 -3 5 1 9
9 9 8 0 15 -2 15 -3z m-1127 -24 c10 -12 9 -12 -3 -4 -8 6 -25 9 -37 8 -12 0
-21 2 -18 6 7 11 44 5 58 -10z m936 -81 c-19 -12 -24 -2 -8 17 9 11 14 13 17
4 3 -7 -2 -16 -9 -21z m-955 12 c16 -1 27 -4 23 -7 -8 -8 18 -34 33 -34 6 0 8
-4 5 -10 -3 -5 0 -10 9 -10 8 0 16 -3 18 -7 2 -5 17 -16 33 -25 34 -19 46 -47
18 -44 -10 0 -20 4 -23 8 -3 4 -22 8 -43 10 -20 1 -37 6 -37 10 0 4 -7 5 -15
2 -9 -4 -15 0 -15 7 0 12 -2 12 -9 1 -7 -11 -11 -11 -23 2 -9 8 -19 12 -23 8
-12 -12 -29 -8 -50 11 -10 9 -26 15 -34 12 -9 -3 -12 -3 -8 1 4 4 -1 13 -10
19 -25 19 -2 41 43 43 20 1 39 3 41 6 2 2 12 3 21 1 9 -2 30 -4 46 -4z m356
-36 c14 0 28 -4 32 -10 5 -6 8 -6 8 1 0 6 10 9 24 7 21 -4 24 -10 21 -34 -4
-33 -27 -89 -36 -89 -3 0 -14 9 -24 20 -10 11 -21 17 -26 14 -12 -7 -46 67
-41 90 2 10 7 15 11 9 3 -5 17 -9 31 -8z m634 -32 c-17 -13 -30 -18 -33 -12
-5 15 53 61 58 46 2 -6 -9 -21 -25 -34z m-44 30 c-1 -17 -58 -64 -65 -54 -3 6
-1 11 5 11 7 0 10 6 7 13 -2 6 5 17 17 24 24 14 36 16 36 6z m-1309 -14 c8
-13 81 -39 92 -32 11 7 -2 23 -19 23 -8 0 -12 5 -9 10 3 6 17 10 31 10 14 0
22 -4 19 -10 -3 -5 -2 -10 4 -10 14 0 61 -49 52 -54 -10 -6 -33 -2 -50 8 -8 5
-16 3 -22 -5 -13 -21 -11 -33 4 -20 10 8 18 7 31 -2 16 -12 11 -13 -38 -13
-31 0 -56 4 -56 9 0 5 6 7 14 4 18 -7 42 18 26 28 -5 3 -10 0 -10 -7 0 -9 -3
-9 -10 2 -7 11 -12 12 -21 3 -8 -8 -18 -9 -30 -2 -14 7 -21 5 -28 -10 -6 -10
-8 -20 -6 -23 2 -2 -5 -5 -17 -5 -20 -2 -20 -1 -2 12 18 14 18 14 -1 15 -12 0
-27 -6 -34 -12 -11 -10 -13 -10 -7 0 9 15 -10 16 -20 1 -4 -7 -10 -7 -16 -1
-13 13 5 41 42 68 32 22 71 28 81 13z m1519 -14 c0 -1 -15 -2 -32 -2 -26 -1
-29 1 -13 7 17 6 45 3 45 -5z m40 5 c0 -5 -4 -10 -10 -10 -5 0 -10 5 -10 10 0
6 5 10 10 10 6 0 10 -4 10 -10z m10 -39 c15 -4 -27 -19 -44 -15 -32 6 -140
-34 -197 -72 -28 -19 -52 -34 -54 -34 -4 0 2 81 7 85 2 2 29 12 61 23 42 14
80 19 140 17 45 -1 84 -3 87 -4z m-1309 -83 c-14 -5 -29 -4 -39 2 -14 9 -13
10 6 5 12 -4 22 -2 22 4 0 6 7 8 17 4 14 -5 13 -8 -6 -15z m99 -19 c19 -5 39
-22 34 -30 -2 -3 -20 -4 -41 -2 -21 2 -50 4 -65 4 -14 0 -29 6 -31 13 -4 9 3
12 19 10 13 -1 24 1 24 6 0 7 27 6 60 -1z m-1393 -6 c-3 -5 10 -16 29 -25 27
-14 32 -14 27 -3 -3 8 -10 12 -16 8 -6 -4 -7 -1 -2 7 6 10 11 9 22 -5 7 -11
13 -23 13 -28 0 -4 5 -5 10 -2 6 4 10 -5 10 -19 0 -14 6 -26 13 -27 9 0 9 -2
-1 -6 -10 -4 -10 -8 -1 -19 6 -7 9 -21 5 -29 -3 -9 -2 -13 4 -10 6 3 10 -3 10
-14 0 -10 4 -21 10 -23 5 -1 6 -9 2 -15 -8 -13 -14 -8 -77 59 -14 15 -25 32
-25 38 0 5 -4 10 -10 10 -5 0 -10 7 -10 15 0 8 -4 15 -9 15 -5 0 -11 15 -14
33 -4 31 -1 47 9 47 3 0 3 -3 1 -7z m1043 -7 c0 10 57 11 68 0 8 -9 -11 -26
-34 -30 -10 -2 -31 -9 -46 -15 -18 -7 -29 -7 -33 0 -4 5 -9 7 -13 5 -4 -2 -12
2 -18 8 -14 15 11 34 39 30 9 -1 17 3 17 9 0 7 5 5 10 -3 5 -8 10 -10 10 -4z
m258 -29 c12 3 22 1 22 -5 0 -6 8 -9 18 -7 11 2 19 -3 19 -11 0 -10 -4 -11
-13 -3 -8 7 -14 7 -19 -1 -4 -7 -12 -7 -26 0 -11 6 -24 8 -29 5 -5 -3 -14 4
-20 15 -10 19 -10 20 8 11 10 -5 28 -7 40 -4z m-341 -42 c2 -6 -18 -10 -44 -9
-27 0 -48 2 -47 5 0 2 7 14 14 25 13 21 14 21 44 5 16 -9 31 -21 33 -26z
m1310 -43 c-18 -18 -25 -21 -23 -9 3 23 40 61 44 47 3 -7 -7 -24 -21 -38z
m-2061 -26 c17 -18 18 -30 2 -20 -7 4 -2 -5 12 -21 14 -16 20 -25 13 -21 -13
7 27 -72 58 -115 10 -15 19 -32 19 -38 0 -6 5 -11 11 -11 6 0 9 -7 6 -14 -4
-11 -1 -13 11 -10 14 5 15 4 2 -5 -8 -6 -18 -11 -21 -11 -7 0 -22 40 -20 52 1
5 -4 7 -9 5 -6 -1 -18 12 -28 28 -9 17 -20 32 -25 33 -4 2 -5 8 -1 13 3 5 0 9
-7 9 -7 0 -9 3 -6 7 4 3 -1 12 -11 20 -10 9 -11 11 -2 7 13 -7 13 -5 2 9 -8 9
-10 22 -6 28 4 8 3 9 -4 5 -8 -5 -12 0 -12 13 0 10 -3 26 -6 35 -8 20 3 21 22
2z m1006 -19 c-2 -11 3 -14 18 -10 12 3 20 0 20 -6 0 -7 4 -10 8 -7 4 2 14 0
22 -6 12 -8 12 -9 -2 -4 -10 3 -18 2 -18 -3 0 -4 -7 -8 -15 -8 -8 0 -11 5 -8
11 4 6 0 5 -9 -2 -14 -11 -17 -10 -23 7 -3 12 -13 28 -21 36 -14 13 -13 15 8
11 14 -2 22 -9 20 -19z m1041 -83 c-3 -8 -9 -14 -15 -14 -5 0 -6 -4 -3 -10 3
-5 1 -10 -5 -10 -6 0 -15 -11 -20 -25 -5 -14 -14 -25 -20 -25 -6 0 -8 -4 -5
-10 3 -5 -1 -10 -9 -10 -9 0 -16 -3 -16 -8 0 -7 -72 -42 -88 -42 -4 0 10 16
31 35 21 19 35 35 31 35 -9 0 46 51 72 67 10 6 18 15 17 20 -1 5 7 9 17 10 13
1 17 -3 13 -13z m11 -81 c-21 -32 -64 -76 -70 -70 -2 2 9 17 26 33 16 16 30
33 30 37 0 10 24 36 28 32 2 -2 -4 -16 -14 -32z m-125 -89 c-6 -7 -15 -11 -20
-8 -5 3 -8 0 -7 -8 2 -7 -3 -12 -9 -10 -7 1 -13 -3 -13 -9 0 -5 -4 -8 -9 -4
-5 3 -16 -1 -24 -9 -8 -8 -17 -13 -20 -10 -3 3 -8 0 -13 -7 -5 -8 -3 -10 6 -4
9 5 11 4 6 -4 -6 -9 -11 -9 -24 1 -9 7 -13 8 -9 2 4 -6 -2 -19 -13 -29 -14
-12 -20 -14 -20 -5 0 8 -4 9 -12 3 -17 -13 -100 -14 -92 -1 4 6 17 8 30 5 13
-2 24 -1 24 2 0 3 16 6 35 6 19 0 34 5 32 10 -1 6 -6 9 -10 7 -5 -1 -6 2 -2 8
3 5 12 10 20 10 7 0 16 7 19 16 3 8 10 13 15 9 6 -3 20 5 32 17 12 13 18 17
14 9 -5 -9 0 -8 17 3 14 9 28 13 31 9 4 -3 7 -1 7 6 0 7 5 9 10 6 8 -5 7 -11
-1 -21z m15 -29 c-9 -14 -19 -23 -22 -20 -3 2 -11 0 -19 -6 -7 -6 -13 -8 -13
-3 0 8 59 54 68 54 1 0 -5 -11 -14 -25z m-64 -37 c0 -6 -3 -8 -7 -5 -3 4 -12
-1 -19 -11 -9 -11 -13 -13 -14 -4 0 16 23 41 33 35 4 -2 7 -9 7 -15z m-840
-283 c14 0 28 5 32 10 5 6 8 5 8 -4 0 -11 3 -11 16 0 13 10 17 10 25 -2 7 -12
9 -12 9 1 0 13 2 13 9 0 11 -16 4 -33 -9 -25 -5 3 -29 -6 -54 -19 -26 -14 -43
-19 -39 -13 5 9 3 9 -8 0 -9 -7 -30 -14 -48 -15 -18 -1 -35 -6 -38 -11 -2 -4
-11 -3 -19 4 -11 9 -14 8 -14 -2 0 -11 -2 -11 -10 1 -5 8 -10 12 -10 7 0 -17
-56 23 -57 41 -2 25 14 29 100 27 41 0 67 3 67 10 0 6 3 7 8 0 4 -5 18 -10 32
-10z"/>
<path d="M2910 1820 c-12 -8 -10 -10 8 -10 13 0 20 4 17 10 -7 12 -6 12 -25 0z"/>
<path d="M2315 1840 c-3 -5 -2 -10 4 -10 5 0 13 5 16 10 3 6 2 10 -4 10 -5 0
-13 -4 -16 -10z"/>
<path d="M3320 1881 c0 -6 4 -13 10 -16 6 -3 7 1 4 9 -7 18 -14 21 -14 7z"/>
<path d="M3110 1638 c0 -9 5 -20 10 -23 13 -8 13 5 0 25 -8 13 -10 13 -10 -2z"/>
<path d="M2630 1496 c0 -2 7 -7 16 -10 8 -3 12 -2 9 4 -6 10 -25 14 -25 6z"/>
<path d="M1649 3873 c-1 -5 -1 -11 0 -15 0 -5 -5 -8 -11 -8 -7 0 -30 -18 -50
-39 -20 -22 -39 -37 -41 -35 -2 3 -4 -6 -3 -18 0 -13 -4 -22 -11 -21 -7 2 -10
-6 -8 -18 2 -11 -4 -28 -13 -37 -9 -9 -16 -27 -14 -39 2 -13 -2 -23 -9 -23 -7
0 -9 -3 -6 -6 3 -4 -2 -17 -12 -30 -10 -13 -25 -44 -32 -69 -7 -25 -16 -45
-19 -45 -3 0 -6 -10 -7 -22 -1 -11 -7 -24 -14 -28 -6 -4 -7 -10 -2 -13 13 -8
53 3 53 15 0 5 4 7 9 4 5 -4 11 -2 13 4 2 6 17 11 33 13 17 1 33 7 37 12 5 6
8 5 8 -3 0 -10 5 -9 23 2 12 7 45 21 72 31 28 9 57 20 65 23 20 7 41 12 63 14
9 1 17 6 17 10 0 4 15 5 33 3 l32 -4 -24 20 c-12 10 -27 16 -32 13 -5 -3 -9 0
-9 6 0 6 -4 9 -9 5 -5 -3 -12 -1 -16 5 -4 7 -13 6 -27 -1 -15 -8 -22 -8 -28 1
-5 9 -9 9 -14 1 -4 -6 -12 -9 -17 -6 -5 4 -9 1 -9 -5 0 -6 -4 -8 -10 -5 -5 3
-10 2 -10 -3 0 -5 -9 -12 -19 -15 -14 -3 -19 0 -18 13 1 10 4 17 8 14 4 -2 10
4 14 15 3 11 12 22 20 25 23 8 18 36 -5 31 -13 -2 -20 2 -20 11 0 8 -10 19
-22 24 -13 5 -18 9 -13 9 6 1 12 12 13 25 1 13 11 44 22 70 20 48 32 96 24 96
-2 0 -5 -3 -5 -7z"/>
<path d="M1897 3863 c5 -12 7 -12 14 -1 7 11 11 10 20 -2 9 -13 10 -13 6 0 -2
8 -13 15 -24 16 -15 1 -20 -3 -16 -13z"/>
<path d="M1761 3853 c-6 -12 -5 -22 4 -30 10 -10 14 -9 19 3 4 10 2 13 -6 8
-7 -5 -9 0 -6 14 7 26 2 28 -11 5z"/>
<path d="M1736 3805 c-3 -8 -1 -15 3 -15 5 0 11 7 15 15 3 8 1 15 -3 15 -5 0
-11 -7 -15 -15z"/>
<path d="M3090 3762 c0 -6 9 -14 20 -17 11 -3 27 -13 35 -22 24 -24 30 -7 6
18 -11 12 -24 20 -27 16 -4 -4 -13 -2 -21 4 -9 8 -13 8 -13 1z"/>
<path d="M2960 3744 c0 -17 22 -42 35 -40 17 2 17 16 0 31 -12 12 -35 18 -35
9z"/>
<path d="M1132 3623 c2 -9 11 -17 21 -19 18 -2 18 -2 1 17 -21 23 -26 24 -22
2z"/>
<path d="M1505 3431 c2 -5 -9 -14 -25 -21 -16 -7 -27 -17 -23 -23 4 -6 1 -7
-7 -2 -7 4 -16 2 -20 -6 -13 -19 -1 -30 19 -19 10 5 21 6 25 3 3 -3 6 -2 6 4
0 6 13 9 30 8 16 -1 28 1 25 5 -3 4 8 8 23 8 49 -1 92 6 92 14 0 4 -9 8 -20 8
-11 0 -20 4 -20 9 0 4 -12 7 -27 7 -16 -1 -40 2 -56 6 -15 4 -25 3 -22 -1z"/>
<path d="M3434 3283 c2 -10 6 -17 10 -16 15 3 16 11 2 22 -12 10 -14 9 -12 -6z"/>
<path d="M854 3092 c3 -5 0 -13 -6 -15 -9 -4 -10 -6 -1 -6 17 -1 25 16 12 25
-7 4 -9 3 -5 -4z"/>
<path d="M792 3045 c15 -8 29 -24 33 -34 3 -11 13 -22 21 -25 10 -4 13 -2 7 7
-12 20 -13 40 0 57 9 11 7 11 -8 -2 -18 -14 -22 -15 -39 -2 -11 8 -25 14 -30
14 -6 -1 1 -7 16 -15z"/>
<path d="M851 2954 c6 -7 8 -18 5 -23 -4 -5 -3 -12 2 -15 5 -3 8 8 8 23 0 16
-5 28 -13 28 -9 0 -10 -4 -2 -13z"/>
<path d="M1725 2854 c0 -30 -5 -49 -15 -57 -8 -6 -12 -7 -8 -3 4 5 0 15 -10
22 -29 22 -32 16 -7 -12 36 -39 54 -26 52 36 0 28 -4 53 -7 55 -3 2 -6 -16 -5
-41z"/>
<path d="M935 2880 c3 -5 8 -10 11 -10 2 0 4 5 4 10 0 6 -5 10 -11 10 -5 0 -7
-4 -4 -10z"/>
<path d="M1096 2857 c-16 -12 -16 -13 2 -13 10 0 19 6 19 13 0 7 -1 13 -2 13
-1 0 -9 -6 -19 -13z"/>
<path d="M1070 2820 c0 -5 5 -10 10 -10 6 0 10 5 10 10 0 6 -4 10 -10 10 -5 0
-10 -4 -10 -10z"/>
<path d="M1775 2813 c1 -10 -2 -24 -8 -31 -7 -9 -5 -11 8 -6 14 6 16 4 10 -6
-5 -8 -4 -11 2 -7 5 3 9 16 7 29 -1 13 -3 26 -3 31 -1 4 -5 7 -10 7 -5 0 -8
-8 -6 -17z"/>
<path d="M1059 2798 c-1 -2 -2 -24 -4 -50 -2 -39 1 -48 14 -48 9 0 12 3 6 8
-15 10 -19 46 -5 37 9 -6 9 -2 1 13 -14 27 -14 35 1 26 7 -4 8 -3 4 4 -7 11
-15 15 -17 10z"/>
<path d="M1802 2760 c-9 -14 -8 -19 2 -23 8 -3 16 3 19 14 7 26 -6 32 -21 9z"/>
<path d="M1866 2768 c3 -4 9 -8 15 -8 5 0 9 4 9 8 0 5 -7 9 -15 9 -8 0 -12 -4
-9 -9z"/>
<path d="M1110 2740 c0 -6 8 -10 17 -8 10 2 18 -3 19 -9 1 -7 2 -18 3 -24 0
-6 8 -8 16 -5 10 3 15 1 13 -7 -2 -6 0 -13 5 -14 4 -2 7 -1 7 2 0 3 0 12 0 20
0 9 -9 15 -22 15 -12 0 -18 3 -15 7 9 9 -12 33 -29 33 -8 0 -14 -5 -14 -10z"/>
<path d="M1660 2736 c0 -2 9 -6 20 -9 11 -3 18 -1 14 4 -5 9 -34 13 -34 5z"/>
<path d="M1060 2680 c-13 -8 -12 -10 3 -10 9 0 17 5 17 10 0 12 -1 12 -20 0z"/>
<path d="M1116 2682 c-2 -4 4 -9 15 -9 11 -1 17 2 14 8 -7 11 -22 12 -29 1z"/>
<path d="M1870 2655 c-7 -9 -10 -18 -6 -22 3 -3 6 -1 6 6 0 7 4 10 8 7 5 -3 9
1 9 9 0 19 -2 19 -17 0z"/>
<path d="M1196 2651 c-4 -5 -2 -12 3 -15 5 -4 12 -2 15 3 4 5 2 12 -3 15 -5 4
-12 2 -15 -3z"/>
<path d="M1110 2641 c0 -6 4 -13 10 -16 6 -3 7 1 4 9 -7 18 -14 21 -14 7z"/>
<path d="M1215 2620 c-7 -12 8 -42 21 -42 5 0 8 -4 7 -8 -1 -4 4 -13 12 -20
11 -9 12 -7 8 10 -3 11 -9 23 -14 26 -5 3 -4 15 2 27 9 20 9 20 -4 5 -17 -22
-28 -23 -21 -3 7 17 -1 20 -11 5z"/>
<path d="M1708 2568 c3 -14 1 -19 -6 -14 -8 5 -10 2 -6 -8 7 -19 25 -21 22 -3
-2 6 4 11 12 9 11 -3 10 2 -4 17 -24 26 -25 26 -18 -1z"/>
<path d="M1857 2545 c-5 -11 -3 -14 5 -9 8 5 9 2 5 -9 -3 -10 -2 -17 3 -17 12
0 13 20 1 38 -7 11 -9 10 -14 -3z"/>
<path d="M1790 2531 c0 -12 -5 -21 -12 -21 -9 0 -9 -3 0 -12 10 -10 15 -10 22
2 13 20 12 37 0 45 -5 3 -10 -3 -10 -14z"/>
<path d="M1662 2517 c0 -7 -3 -24 -5 -39 -2 -14 0 -32 5 -40 7 -10 8 -8 4 5
-3 9 -1 17 4 17 5 0 6 7 3 17 -4 11 -3 14 5 9 8 -5 10 -2 6 8 -4 11 0 16 12
16 22 0 14 9 -13 14 -11 3 -20 -1 -21 -7z"/>
<path d="M706 2407 c2 -7 18 -21 34 -31 32 -18 39 -36 15 -36 -8 0 -15 -4 -15
-10 0 -5 8 -10 19 -10 10 0 24 -7 31 -15 10 -13 9 -15 -10 -15 -26 0 -22 -22
5 -26 46 -7 62 -15 73 -38 11 -24 10 -25 -15 -15 -14 5 -28 8 -30 5 -8 -7 28
-36 45 -36 21 0 62 -27 62 -41 0 -6 -4 -7 -10 -4 -23 14 -50 13 -50 -2 0 -10
6 -14 20 -10 11 3 20 1 20 -4 0 -5 10 -9 23 -9 21 -1 57 -21 57 -33 0 -3 -9
-3 -20 0 -15 4 -19 2 -14 -10 3 -9 14 -19 24 -22 24 -8 70 -44 70 -56 0 -15
-28 -10 -38 7 -6 11 -11 13 -16 5 -4 -6 0 -14 8 -17 9 -3 13 -10 10 -15 -3 -5
8 -12 25 -15 17 -4 28 -10 25 -15 -3 -5 -1 -9 5 -9 5 0 13 5 17 11 5 8 10 6
16 -5 5 -9 16 -16 23 -16 8 0 15 -7 15 -15 0 -8 6 -12 13 -9 8 3 20 -3 28 -13
13 -16 12 -17 -3 -4 -21 15 -24 2 -5 -19 6 -8 3 -7 -8 2 -16 13 -23 14 -37 4
-11 -8 -14 -17 -7 -27 6 -9 9 -10 9 -2 0 8 13 12 35 11 19 -1 35 -5 35 -10 0
-13 33 -5 46 11 10 12 13 11 23 -7 10 -18 9 -20 -8 -17 -11 2 -25 -3 -31 -11
-7 -7 -16 -12 -20 -9 -4 3 -11 -3 -14 -12 -4 -10 -4 -14 0 -11 4 4 16 2 28 -4
11 -6 18 -7 14 -3 -4 5 -3 14 3 22 13 15 33 18 24 3 -3 -5 3 -10 14 -10 12 0
21 -5 21 -11 0 -5 5 -7 10 -4 6 4 10 3 9 -2 -4 -22 3 -31 21 -26 14 4 20 0 20
-12 0 -15 3 -15 15 -5 14 12 12 15 -12 31 -15 11 -23 19 -18 20 6 0 0 4 -13
10 -13 5 -20 13 -17 19 3 5 1 10 -4 10 -6 0 -11 7 -11 15 0 8 -5 15 -11 15 -5
0 -7 5 -4 10 3 5 2 10 -3 10 -16 0 -23 31 -12 45 14 17 -1 27 -20 14 -13 -7
-13 -9 0 -9 12 0 13 -2 1 -9 -7 -5 -11 -13 -8 -18 4 -6 1 -16 -6 -24 -7 -8
-11 -12 -10 -10 2 2 -6 11 -17 18 -11 8 -18 18 -15 23 3 4 0 10 -7 12 -6 2
-11 18 -10 34 0 18 -5 31 -12 31 -7 0 -12 -9 -12 -20 1 -11 -6 -21 -17 -23 -9
-1 -15 2 -11 7 3 5 11 6 17 3 7 -4 8 -3 4 2 -5 5 -12 9 -15 10 -20 2 -41 17
-36 25 3 5 -1 9 -8 9 -9 0 -14 14 -14 40 -1 22 3 40 8 40 5 0 7 4 4 9 -4 5 0
12 6 14 7 3 3 6 -9 6 -13 1 -24 -3 -24 -9 -1 -5 -3 -14 -4 -20 -1 -5 -3 -15
-4 -21 -1 -8 -6 -8 -16 1 -9 7 -15 20 -14 29 4 48 -1 73 -16 67 -10 -4 -15 1
-15 14 0 25 -16 26 -29 3 -5 -10 -12 -15 -15 -12 -6 6 -10 76 -6 94 5 20 0 36
-10 30 -5 -3 -10 -20 -10 -36 0 -20 -4 -29 -12 -26 -7 2 -13 16 -13 30 1 16
-5 27 -13 27 -10 0 -13 13 -11 50 2 30 -2 55 -10 63 -10 10 -11 7 -6 -13 3
-15 0 -33 -9 -45 l-15 -20 -15 20 c-13 17 -13 23 -1 41 13 21 11 34 -7 34 -4
0 -8 -8 -9 -17 0 -14 -3 -13 -11 5 -12 23 -28 30 -28 11 0 -7 -10 -5 -25 5
-17 11 -23 12 -19 3z"/>
<path d="M1145 2160 c-8 -13 3 -30 18 -30 8 0 7 3 -2 9 -7 5 -10 14 -7 20 4 6
5 11 2 11 -3 0 -8 -4 -11 -10z"/>
<path d="M1129 2083 c-13 -16 -12 -17 4 -4 16 13 21 21 13 21 -2 0 -10 -8 -17
-17z"/>
<path d="M1140 2061 c0 -6 5 -11 11 -11 5 0 7 -4 4 -10 -3 -5 -1 -10 4 -10 16
0 13 16 -4 30 -10 9 -15 9 -15 1z"/>
<path d="M1112 2034 c-7 -8 -8 -14 -3 -14 5 0 8 -9 6 -20 -5 -25 11 -17 18 9
7 27 -5 42 -21 25z"/>
<path d="M1246 2002 c-3 -6 1 -12 9 -16 8 -3 12 -12 9 -21 -3 -8 -4 -15 -1
-15 3 0 7 6 10 13 6 16 -19 52 -27 39z"/>
<path d="M1080 1902 c0 -5 30 -34 31 -30 6 28 4 34 -12 34 -11 0 -19 -2 -19
-4z"/>
<path d="M1353 1805 c0 -8 4 -12 9 -9 5 3 6 10 3 15 -9 13 -12 11 -12 -6z"/>
<path d="M944 1799 c-3 -5 -2 -9 2 -9 4 0 0 -6 -9 -12 -19 -15 -30 -65 -16
-74 5 -3 7 -9 4 -14 -3 -5 2 -24 12 -42 9 -18 16 -37 14 -43 -1 -5 0 -7 4 -3
4 3 20 -7 37 -23 17 -16 34 -26 38 -24 4 3 13 -1 19 -8 7 -10 30 -13 73 -11
97 5 111 8 115 24 3 9 1 11 -4 4 -12 -15 -117 -22 -163 -11 -50 12 -120 71
-120 101 0 9 -5 16 -10 16 -6 0 -8 11 -6 25 3 13 1 27 -4 30 -21 13 30 75 55
67 6 -2 6 0 2 4 -11 12 -36 13 -43 3z"/>
<path d="M1239 1744 c-7 -9 -6 -12 5 -10 9 1 19 5 22 9 12 12 26 8 18 -5 -4
-7 -3 -8 4 -4 7 4 12 11 12 16 0 14 -49 8 -61 -6z"/>
<path d="M1296 1674 c-5 -14 -4 -15 9 -4 17 14 19 20 6 20 -5 0 -12 -7 -15
-16z"/>
<path d="M1261 1581 c-8 -5 -9 -11 -3 -15 5 -3 12 1 16 9 6 17 6 18 -13 6z"/>
<path d="M3812 1440 c0 -19 2 -27 5 -17 2 9 2 25 0 35 -3 9 -5 1 -5 -18z"/>
<path d="M3752 1448 c2 -6 10 -14 16 -16 7 -2 10 2 6 12 -7 18 -28 22 -22 4z"/>
<path d="M1717 967 c-3 -8 -2 -20 3 -26 5 -9 8 -4 8 13 0 29 -3 32 -11 13z"/>
<path d="M3056 863 c-6 -14 -5 -15 5 -6 7 7 10 15 7 18 -3 3 -9 -2 -12 -12z"/>
<path d="M3130 840 c0 -5 5 -10 10 -10 6 0 10 5 10 10 0 6 -4 10 -10 10 -5 0
-10 -4 -10 -10z"/>
<path d="M3153 825 c-3 -9 -3 -19 1 -22 10 -11 37 -12 30 -2 -3 5 -9 7 -14 4
-4 -3 -6 4 -3 15 6 23 -5 27 -14 5z"/>
<path d="M3250 833 c0 -6 -12 -9 -26 -7 -14 1 -23 0 -20 -4 8 -7 32 -12 64
-14 12 0 22 -4 22 -9 0 -5 9 -9 20 -9 11 0 20 -4 20 -9 0 -6 10 -8 21 -6 32 6
36 15 7 15 -15 0 -29 7 -32 16 -5 13 -4 14 7 6 10 -9 17 -8 25 0 20 20 13 29
-10 17 -13 -7 -24 -12 -25 -11 -11 7 -23 0 -18 -10 4 -7 -3 -2 -15 12 -12 14
-18 18 -14 10 7 -13 5 -13 -9 -1 -9 7 -17 9 -17 4z"/>
<path d="M3393 817 c0 -8 6 -14 13 -14 7 0 10 6 7 14 -3 7 -8 13 -12 13 -4 0
-8 -6 -8 -13z"/>
<path d="M1986 771 c-26 -21 -32 -30 -21 -34 8 -4 24 6 38 23 14 16 28 26 31
23 3 -4 6 -1 6 5 0 19 -15 14 -54 -17z"/>
<path d="M2005 500 c-3 -6 1 -7 9 -4 18 7 21 14 7 14 -6 0 -13 -4 -16 -10z"/>
<path d="M2035 480 c3 -5 8 -10 11 -10 2 0 4 5 4 10 0 6 -5 10 -11 10 -5 0 -7
-4 -4 -10z"/>
</g>
</svg>
